<?xml version="1.0" standalone="no"?>
<!DOCTYPE svg PUBLIC "-//W3C//DTD SVG 20010904//EN"
 "http://www.w3.org/TR/2001/REC-SVG-20010904/DTD/svg10.dtd">
<svg version="1.0" xmlns="http://www.w3.org/2000/svg"
 width="1163.000000pt" height="1165.000000pt" viewBox="0 0 1163.000000 1165.000000"
 preserveAspectRatio="xMidYMid meet">

<g transform="translate(0.000000,1165.000000) scale(0.100000,-0.100000)"
fill="#000000" stroke="none">
<path d="M7423 10949 c-26 -9 -29 -22 -10 -37 8 -7 18 -5 34 8 28 22 11 43
-24 29z"/>
<path d="M7217 10764 c-38 -42 -57 -71 -57 -88 0 -14 -5 -26 -11 -26 -6 0 -8
10 -5 23 3 12 3 16 0 10 -3 -8 -24 -13 -50 -13 -25 0 -58 -7 -75 -15 -16 -9
-34 -13 -39 -10 -6 3 -10 1 -10 -5 0 -6 -4 -9 -8 -6 -5 3 -24 -8 -43 -25 -19
-16 -35 -24 -37 -19 -2 6 -13 10 -23 10 -11 0 -18 4 -14 9 3 5 1 13 -5 16 -6
4 -9 19 -8 33 2 15 -1 26 -7 25 -13 -3 -123 -42 -150 -53 -58 -24 -108 -40
-125 -40 -11 0 -20 -7 -20 -15 0 -8 -4 -15 -10 -15 -5 0 -10 5 -10 10 0 24
-20 7 -21 -17 -2 -25 -2 -26 -6 -5 -4 19 -9 23 -26 17 -12 -4 -30 -7 -39 -6
-10 0 -18 -7 -18 -15 0 -8 8 -14 18 -15 14 0 14 -2 -3 -9 l-20 -9 20 -1 c17
-1 17 -3 -5 -12 -57 -23 -190 5 -245 52 -11 9 -28 20 -37 23 -18 6 -20 2 -47
-116 -15 -64 -15 -65 17 -60 15 2 37 4 50 4 13 -1 41 3 63 8 21 5 39 5 39 1 0
-4 21 -8 48 -8 50 -1 101 -19 142 -51 l25 -20 -28 -10 c-16 -6 -34 -11 -40
-11 -20 0 -58 -30 -52 -41 4 -5 25 -9 48 -9 96 -1 191 -39 260 -103 15 -14 27
-21 27 -16 0 6 9 8 20 4 11 -3 20 -2 20 3 0 6 -6 12 -12 15 -10 3 -10 8 1 21
34 41 31 -49 -3 -93 -8 -10 -2 -20 24 -42 34 -28 60 -37 60 -21 0 5 6 16 13
26 13 18 16 17 56 -9 128 -80 301 -5 301 130 l0 38 25 -23 25 -24 -7 35 c-3
19 -12 47 -18 62 -12 30 -8 87 6 87 5 0 8 13 7 28 -2 33 21 87 53 121 20 21
28 23 83 18 34 -3 72 -8 85 -13 17 -5 22 -4 17 4 -4 7 -1 12 8 12 11 0 16 9
16 29 0 19 8 36 23 48 39 31 33 63 -25 139 -54 69 -73 81 -148 88 -33 3 -41
-2 -93 -60z m-640 -201 c-13 -3 -17 -11 -14 -24 3 -10 1 -17 -4 -13 -5 3 -9
14 -9 25 0 13 6 19 23 18 18 -1 19 -2 4 -6z m277 -38 c-4 -8 -11 -12 -16 -9
-6 4 -5 10 3 15 19 12 19 11 13 -6z m-365 -14 c11 -7 9 -10 -8 -16 -13 -4 -25
-4 -28 -1 -4 3 2 6 13 6 16 0 17 2 4 10 -8 5 -10 10 -5 10 6 0 16 -4 24 -9z"/>
<path d="M7705 10720 c-3 -5 1 -10 9 -10 9 0 16 5 16 10 0 6 -4 10 -9 10 -6 0
-13 -4 -16 -10z"/>
<path d="M8134 10129 c13 -85 18 -199 10 -217 -4 -9 -6 -23 -5 -29 1 -7 -3
-13 -9 -13 -5 0 -10 -7 -10 -15 0 -26 -31 -65 -52 -65 -21 0 -21 9 -2 80 7 22
6 24 -9 11 -15 -12 -17 -11 -17 4 0 15 -3 15 -15 5 -12 -10 -19 -10 -27 -2 -7
7 -16 12 -22 12 -6 0 -5 -5 2 -12 9 -9 6 -14 -11 -23 -18 -9 -25 -8 -39 8 -10
11 -18 15 -18 9 0 -27 -18 -9 -24 23 -7 34 -26 49 -26 20 0 -8 -3 -14 -7 -13
-13 3 -57 -14 -85 -33 -14 -11 -39 -19 -55 -19 -17 0 -33 -8 -41 -20 -7 -11
-17 -20 -22 -20 -6 0 -50 -16 -98 -35 -79 -31 -88 -33 -102 -19 -13 15 -13 15
8 9 24 -7 31 9 7 19 -19 7 -11 52 15 81 56 64 108 185 80 185 -6 0 -10 -4 -10
-9 0 -5 -9 -11 -19 -14 -14 -3 -18 -1 -14 10 10 24 -30 11 -42 -14 -29 -57
-114 -130 -186 -161 -56 -24 -164 -46 -178 -37 -15 9 -4 25 18 25 20 0 81 28
81 37 0 3 -18 3 -40 -1 -25 -4 -40 -2 -40 4 0 5 -9 10 -20 10 -11 0 -20 -5
-20 -11 0 -5 -5 -7 -10 -4 -6 4 -18 1 -27 -7 -9 -7 -14 -8 -10 -2 5 8 -7 10
-41 7 -34 -3 -43 -2 -32 6 11 7 1 11 -39 17 -29 4 -60 14 -68 23 -15 14 -16
11 -10 -38 5 -46 4 -51 -8 -41 -18 15 -18 11 -5 -27 l10 -28 -19 22 c-10 12
-21 19 -24 16 -4 -3 -22 8 -41 25 -26 23 -48 32 -88 36 -29 3 -73 9 -98 12
-25 3 -92 8 -150 10 -86 3 -118 0 -170 -17 -36 -11 -83 -25 -105 -30 -21 -6
-44 -14 -50 -18 -16 -13 -105 -30 -105 -20 0 15 -37 10 -50 -6 -8 -10 -25 -13
-53 -10 -23 2 -44 0 -47 -4 -3 -4 -18 -11 -35 -15 -24 -6 -28 -5 -17 5 21 22
13 32 -23 26 -19 -3 -35 -2 -35 4 0 16 -26 10 -45 -11 -18 -20 -19 -20 -39 -2
-33 30 -54 34 -66 11 -9 -17 -4 -26 34 -65 26 -25 46 -42 46 -37 0 4 8 -7 17
-25 15 -31 15 -34 -6 -53 -25 -24 -26 -35 -4 -47 14 -9 14 -11 -5 -21 -16 -8
-28 -9 -42 -1 -11 6 -20 7 -20 3 -1 -4 -10 3 -20 16 -12 14 -20 38 -20 62 0
43 -6 48 -26 22 -12 -16 -15 -16 -24 -3 -5 8 -10 10 -10 5 0 -6 4 -15 9 -20
16 -16 1 -65 -20 -65 -23 0 -33 -16 -14 -24 8 -3 15 -15 15 -27 0 -12 11 -42
25 -66 24 -40 25 -43 7 -43 -11 0 -33 -3 -50 -6 -24 -5 -31 -2 -35 12 -4 15
-5 16 -6 3 -1 -10 -12 -18 -30 -21 l-29 -4 1 52 c2 56 -2 67 -24 59 -16 -6
-69 -113 -69 -139 0 -10 -12 -30 -27 -45 -16 -15 -30 -32 -31 -37 -9 -24 -12
-12 -12 51 0 57 -3 71 -22 87 -12 10 -28 16 -36 13 -21 -8 -61 5 -56 18 2 7
-8 12 -26 13 -25 1 -32 -4 -37 -25 -14 -57 -55 -70 -48 -15 3 29 2 35 -11 30
-9 -3 -26 -6 -38 -6 -13 0 -28 -11 -39 -29 -13 -22 -26 -31 -50 -33 -19 -2
-31 -8 -30 -15 2 -7 -4 -13 -12 -13 -8 0 -15 5 -15 10 0 24 -28 7 -33 -20 -4
-16 -13 -30 -21 -30 -7 0 -16 -7 -20 -15 -3 -8 -11 -15 -17 -15 -9 0 -9 3 0
14 6 7 9 20 6 29 -4 8 5 27 20 43 25 27 28 51 6 46 -16 -3 -9 30 9 44 23 19
10 120 -19 144 -3 3 -19 22 -34 43 -32 42 -101 81 -163 91 -57 10 -62 -6 -8
-28 24 -10 44 -22 44 -28 0 -5 -4 -7 -9 -4 -19 12 -213 -37 -231 -59 -6 -7
-22 -16 -36 -19 -20 -5 -23 -11 -18 -34 3 -15 15 -39 25 -54 10 -15 19 -34 19
-43 0 -10 5 -13 12 -9 8 5 9 2 5 -10 -4 -10 -7 -20 -7 -22 0 -2 -7 -4 -15 -4
-8 0 -15 -4 -15 -10 0 -12 13 -13 25 -1 6 5 20 12 32 15 19 6 21 3 20 -34 -1
-22 -5 -40 -9 -40 -5 0 -8 -4 -8 -10 0 -5 7 -10 16 -10 13 0 14 -3 5 -14 -8
-9 -8 -16 -2 -20 11 -7 2 -79 -11 -84 -4 -2 -8 -10 -8 -18 0 -8 -7 -28 -15
-43 -10 -20 -11 -37 -5 -57 4 -16 9 -24 9 -18 1 6 10 21 20 33 11 12 26 32 34
44 8 12 19 18 23 14 5 -4 4 -11 -1 -15 -14 -9 -35 -59 -35 -80 1 -13 7 -9 25
13 44 53 68 74 77 68 5 -3 7 -11 4 -19 -11 -28 12 -13 24 16 7 17 16 30 20 30
4 0 13 -21 19 -47 13 -53 71 -120 112 -129 63 -14 82 -15 89 -4 4 6 18 12 31
14 39 4 59 17 73 45 l14 26 -1 -39 c-1 -21 -3 -34 -5 -27 -2 6 -8 9 -12 6 -5
-3 -7 -12 -4 -19 9 -22 -94 -83 -112 -67 -5 4 -42 6 -82 3 l-73 -4 33 -24 c17
-13 40 -24 50 -24 24 0 23 -32 -1 -54 -11 -10 -21 -29 -23 -43 -7 -58 -102
-77 -238 -48 -80 17 -124 37 -160 73 -14 13 -42 38 -63 56 -21 17 -45 46 -52
64 -15 33 -33 40 -53 20 -9 -9 -18 -6 -38 13 -20 19 -25 31 -21 56 4 22 1 33
-9 37 -19 7 -18 45 1 52 11 5 13 10 5 19 -13 16 1 28 24 19 8 -3 23 2 32 11
15 14 15 18 3 26 -8 5 -15 4 -17 -1 -5 -13 -32 -13 -32 0 0 6 5 10 10 10 6 0
10 13 10 29 0 16 4 31 9 33 4 2 12 13 15 26 6 17 3 22 -11 22 -21 -1 -63 -33
-63 -49 0 -6 -4 -11 -10 -11 -5 0 -10 -7 -10 -15 0 -8 -4 -15 -9 -15 -5 0 -11
-10 -13 -21 -2 -12 -14 -26 -27 -31 -21 -7 -23 -6 -18 14 2 13 8 32 12 43 8
20 8 20 -13 1 -17 -15 -31 -18 -68 -12 -40 5 -45 4 -42 -12 2 -9 -6 -26 -18
-37 -11 -11 -25 -33 -31 -50 l-9 -29 -13 48 c-13 53 -16 197 -5 242 4 16 21
53 37 82 35 64 27 79 -28 52 -22 -10 -65 -20 -95 -22 -53 -3 -55 -4 -52 -31 2
-19 -2 -27 -12 -27 -8 0 -19 -8 -25 -17 -17 -31 -23 -6 -7 26 22 42 19 61 -5
32 l-20 -25 6 30 c6 26 4 24 -15 -11 -12 -22 -29 -53 -38 -70 -8 -16 -19 -32
-23 -35 -4 -3 -10 -18 -13 -33 -2 -15 -7 -36 -11 -46 -4 -14 3 -22 30 -35 34
-16 35 -18 28 -59 -3 -23 -15 -60 -26 -81 l-21 -39 36 -31 c19 -17 51 -44 71
-60 21 -16 37 -35 37 -43 0 -7 5 -13 10 -13 6 0 10 -4 10 -9 0 -11 -78 -31
-122 -31 l-33 -1 38 -23 c52 -32 57 -39 15 -22 -37 16 -169 22 -223 11 -40 -8
-76 -33 -82 -56 -3 -10 -13 -19 -22 -19 -14 0 -14 -2 -1 -10 8 -5 30 -10 48
-10 41 0 90 -29 70 -41 -7 -5 -28 -9 -46 -9 -20 0 -35 -6 -38 -15 -4 -8 -14
-15 -24 -15 -11 0 -22 -4 -25 -10 -3 -5 -12 -10 -20 -10 -24 0 -135 -121 -135
-147 0 -14 2 -14 23 1 66 49 83 56 135 56 33 0 51 -4 47 -10 -3 -5 2 -10 12
-11 10 0 13 -3 6 -6 -7 -2 -13 -11 -13 -19 0 -7 -9 -19 -20 -26 -30 -19 -26
-40 8 -32 52 12 88 23 172 54 88 32 192 42 214 20 5 -5 19 -10 31 -11 20 -1
20 -1 0 -8 -45 -14 -166 -83 -199 -111 -19 -17 -47 -51 -63 -75 -15 -25 -31
-45 -35 -45 -5 0 -8 -6 -8 -13 0 -15 -30 -32 -74 -42 -53 -11 -125 -103 -127
-162 l-1 -28 -8 30 c-23 90 -4 232 37 277 9 10 13 18 10 18 -10 0 -57 -54 -57
-66 0 -6 -7 -18 -16 -25 -15 -12 -16 -11 -10 8 16 51 15 63 -5 63 -16 0 -19 5
-14 20 5 14 2 20 -10 20 -9 0 -13 -5 -10 -10 13 -20 -23 -21 -56 -1 -40 25
-49 26 -49 7 0 -8 -9 -18 -21 -21 -17 -6 -20 -13 -15 -36 5 -28 -8 -42 -16
-17 -7 19 -38 1 -38 -21 0 -18 -4 -20 -42 -14 -24 4 -55 7 -71 6 -23 0 -27 3
-21 21 5 17 4 19 -7 9 -7 -7 -30 -13 -50 -13 -39 0 -66 -21 -53 -41 5 -9 2
-10 -9 -6 -11 4 -14 2 -11 -7 3 -8 1 -17 -5 -21 -6 -3 -11 -17 -11 -30 0 -13
-4 -27 -10 -30 -5 -3 -10 -22 -10 -41 0 -19 -4 -34 -10 -34 -12 0 -12 21 1 80
5 25 16 83 23 130 8 47 23 121 33 165 10 44 18 117 18 163 0 74 2 83 17 79 10
-3 27 4 39 14 12 10 29 19 37 19 28 0 79 -31 90 -55 7 -14 16 -25 21 -25 6 0
22 -20 37 -45 29 -50 39 -50 49 -2 18 86 51 160 96 218 16 20 29 41 29 45 0 5
11 16 24 24 14 8 52 33 86 55 60 40 61 40 56 80 -4 29 1 55 18 95 14 30 22 57
19 60 -3 3 -18 -11 -34 -30 -16 -19 -29 -28 -29 -20 0 20 -13 3 -17 -22 -5
-29 -22 -48 -43 -48 -26 0 -91 -66 -84 -85 3 -8 10 -15 15 -15 19 0 -4 -27
-32 -37 -27 -10 -29 -10 -18 3 11 13 9 14 -17 8 -16 -4 -35 -13 -42 -21 -7 -7
-18 -13 -23 -13 -6 0 -7 -4 -4 -10 3 -5 -2 -10 -12 -10 -10 0 -32 -13 -48 -28
-17 -16 -49 -41 -72 -56 -33 -22 -45 -26 -60 -17 -14 8 -15 11 -3 11 10 1 9 4
-5 10 -28 12 -37 12 -30 0 3 -5 -1 -10 -10 -10 -9 0 -13 -5 -10 -10 4 -7 -2
-9 -18 -4 -14 3 -35 3 -46 -1 -18 -5 -19 -8 -7 -21 8 -8 21 -14 28 -14 7 -1 0
-8 -17 -17 -20 -11 -30 -12 -33 -4 -4 13 -32 15 -32 2 0 -9 -105 -24 -154 -22
-15 1 -40 8 -55 16 -25 14 -24 14 29 13 41 -1 77 7 140 32 47 18 89 37 95 42
5 4 16 8 25 8 8 0 30 14 48 30 18 17 38 30 43 30 6 0 8 4 5 9 -3 5 1 11 9 15
8 3 15 10 15 16 0 19 -39 10 -67 -16 -46 -43 -71 -56 -93 -49 -14 5 -20 2 -20
-9 0 -9 -6 -16 -13 -16 -7 0 -17 -8 -24 -19 -6 -10 -27 -21 -45 -24 -18 -3
-56 -11 -85 -18 -94 -23 -141 23 -60 59 23 11 50 28 60 39 18 20 17 21 -13 25
-16 3 -30 2 -30 -1 0 -13 -65 -34 -99 -33 -20 1 -42 -2 -49 -7 -13 -8 -1 -23
59 -75 16 -14 20 -25 15 -50 -13 -64 25 -176 95 -282 38 -56 45 -74 36 -85
-10 -11 -9 -11 4 -1 14 11 22 7 48 -25 22 -27 30 -44 25 -58 -3 -11 -7 -30 -8
-42 -2 -13 -5 -26 -9 -29 -8 -8 3 -35 13 -29 15 9 31 -23 24 -49 -7 -29 -11
-30 -47 -17 -37 14 -125 22 -132 11 -3 -5 -22 -17 -41 -26 -20 -10 -40 -28
-45 -43 -5 -14 -14 -36 -20 -48 -9 -17 -8 -25 9 -44 19 -20 26 -21 70 -12 59
11 144 -9 135 -33 -3 -8 0 -14 6 -14 6 0 11 -3 11 -7 0 -5 -35 -8 -78 -8 -77
-1 -151 -20 -135 -36 4 -4 24 -4 44 0 89 20 220 -28 278 -102 12 -15 12 -19
-3 -30 -10 -7 -21 -29 -25 -47 -4 -19 -11 -34 -16 -33 -6 1 -13 -4 -17 -12 -6
-10 -17 -11 -45 -4 -59 13 -73 9 -21 -7 26 -8 49 -18 52 -23 3 -5 -20 -12 -52
-15 -96 -12 -116 -17 -142 -36 -24 -18 -24 -18 33 -5 57 13 137 10 137 -6 0
-5 -7 -9 -16 -9 -11 0 -8 -7 10 -24 15 -13 26 -26 26 -30 0 -3 -49 -6 -108 -6
-105 0 -111 -1 -150 -30 -59 -42 -77 -72 -60 -99 7 -12 16 -21 20 -21 10 0 38
-53 60 -115 19 -52 18 -117 -1 -123 -20 -7 27 -59 66 -75 21 -8 49 -27 62 -41
14 -14 30 -26 37 -26 7 0 14 -4 16 -9 1 -5 19 -18 38 -28 30 -17 35 -25 35
-56 0 -19 3 -39 8 -43 4 -4 7 -18 7 -30 0 -13 5 -26 10 -29 6 -3 10 -17 10
-30 0 -33 88 -126 160 -170 63 -38 100 -80 100 -113 0 -12 5 -24 10 -27 6 -3
10 -17 10 -30 0 -13 5 -27 10 -30 6 -3 10 -14 10 -25 0 -10 13 -42 29 -72 29
-56 38 -89 48 -168 3 -25 9 -49 14 -54 5 -6 9 -27 9 -48 0 -21 4 -46 9 -56 28
-55 43 -124 33 -150 -17 -44 -24 -102 -12 -102 5 0 10 6 10 13 0 8 4 7 10 -3
5 -8 9 -24 9 -35 0 -11 -3 -14 -6 -7 -8 21 -23 3 -23 -29 0 -18 -4 -28 -10
-24 -17 10 -11 -74 10 -164 14 -58 17 -88 10 -95 -13 -13 -13 -69 2 -120 16
-55 27 -68 54 -62 13 4 29 0 37 -9 14 -13 18 -12 36 13 11 15 21 21 21 13 0
-12 3 -11 18 1 24 22 80 32 97 18 10 -8 18 -8 33 1 11 7 27 9 36 6 15 -6 15
-8 -1 -27 -51 -59 -95 -101 -100 -96 -4 3 1 14 10 24 10 10 17 25 17 33 0 8
-13 0 -29 -18 -16 -18 -34 -33 -41 -33 -6 0 -24 -13 -39 -29 -27 -29 -31 -30
-102 -26 -40 2 -69 1 -62 -3 6 -4 12 -15 14 -24 2 -10 49 -63 103 -118 79 -80
105 -100 128 -100 15 0 28 -4 28 -8 0 -5 18 -28 40 -53 31 -34 40 -52 40 -80
0 -43 28 -72 86 -89 23 -7 54 -24 70 -39 16 -14 41 -32 57 -40 15 -8 27 -20
27 -26 0 -7 6 -18 14 -24 8 -7 18 -27 22 -44 13 -60 112 -177 174 -203 19 -9
42 -19 50 -23 8 -4 40 -58 70 -119 30 -60 62 -119 71 -129 9 -10 19 -26 22
-35 4 -10 11 -18 18 -18 6 0 9 6 6 14 -11 28 -29 177 -24 196 3 11 1 20 -3 20
-10 0 -18 35 -25 115 -3 33 -7 74 -10 90 -4 27 -24 189 -45 370 -5 39 -12 89
-16 113 -6 40 4 80 37 144 5 10 9 28 9 40 1 22 1 23 15 4 15 -19 15 -19 15 3
0 12 9 31 20 43 l20 22 19 -21 c10 -11 21 -29 24 -39 4 -17 6 -17 12 4 5 16
15 22 37 22 29 0 30 -1 23 -39 -4 -24 -2 -42 4 -46 6 -3 11 -14 10 -23 0 -11
-2 -12 -6 -4 -2 6 -9 10 -13 7 -10 -6 8 -55 20 -55 3 0 11 5 17 11 14 14 34 3
27 -15 -3 -7 1 -16 9 -19 8 -3 17 -26 21 -54 14 -106 18 -123 27 -123 5 0 9
19 10 43 l1 42 9 -35 c20 -72 87 -183 106 -175 9 3 13 -7 13 -34 0 -37 31 -86
102 -165 10 -11 21 -41 24 -68 6 -47 8 -48 40 -48 26 0 34 -4 34 -18 0 -23 29
-64 30 -42 0 8 11 -2 25 -21 13 -20 31 -39 40 -42 8 -4 15 -13 15 -22 0 -8 5
-15 11 -15 6 0 20 -11 31 -25 16 -21 28 -25 69 -25 40 0 49 -3 49 -17 0 -15 2
-16 10 -3 9 13 11 13 19 0 12 -17 5 -30 -15 -30 -19 0 -18 -26 2 -34 28 -11
33 -7 48 41 11 38 15 42 15 21 1 -15 10 -43 20 -62 11 -19 23 -51 27 -70 3
-21 12 -36 20 -36 8 0 14 -10 15 -22 l0 -23 9 23 c13 31 48 29 61 -5 5 -14 18
-33 27 -42 10 -9 22 -31 28 -50 12 -42 34 -53 34 -17 0 33 14 33 44 1 13 -14
29 -25 36 -25 8 0 10 -13 6 -42 -3 -24 -3 -35 0 -25 7 21 24 23 24 2 0 -8 5
-15 10 -15 6 0 10 7 10 15 0 21 17 19 24 -2 3 -10 3 2 1 27 -2 25 -2 37 1 28
3 -10 9 -18 13 -18 20 0 81 -70 81 -94 0 -14 6 -29 13 -33 8 -4 17 -16 20 -27
5 -14 13 -17 32 -12 24 6 264 -8 333 -20 23 -3 39 -15 52 -37 11 -18 20 -26
20 -19 0 18 38 -7 46 -30 6 -19 34 -25 34 -8 0 6 7 10 15 10 8 0 19 -16 25
-40 6 -21 17 -46 25 -54 19 -19 19 -36 0 -36 -8 0 -15 -4 -15 -10 0 -5 7 -10
15 -10 9 0 18 -7 21 -15 4 -8 12 -15 19 -15 7 0 15 -14 19 -32 3 -18 20 -43
38 -58 24 -20 29 -30 22 -43 -14 -25 -5 -107 12 -107 10 0 14 -12 14 -40 0
-23 -5 -40 -11 -40 -11 0 -10 -12 6 -80 2 -8 4 -21 4 -28 1 -7 14 -18 31 -23
32 -12 33 -25 8 -92 -6 -15 -8 -30 -4 -34 3 -3 6 -1 6 5 0 7 7 12 16 12 13 0
14 -3 4 -15 -9 -11 -8 -19 7 -39 10 -14 21 -26 24 -26 4 0 5 28 3 61 -2 34 1
69 6 78 8 14 9 13 10 -6 0 -13 6 -23 14 -23 8 0 17 -7 20 -16 7 -17 -10 -54
-24 -54 -6 0 -10 -5 -10 -12 0 -22 -35 -87 -45 -84 -5 1 -9 16 -7 33 2 17 -3
35 -11 41 -15 13 -47 6 -47 -9 0 -5 -7 -9 -15 -9 -14 0 -14 -3 1 -25 18 -27
14 -40 -16 -48 -23 -6 -24 -3 -8 23 14 22 8 33 -16 24 -18 -7 -23 -78 -6 -89
6 -3 10 -1 10 4 0 6 15 11 33 11 17 0 48 4 67 10 19 5 70 11 113 13 70 4 79 3
95 -17 23 -29 89 -49 96 -30 3 8 13 14 22 14 15 0 14 -4 -6 -25 -13 -14 -31
-25 -39 -25 -14 0 -14 -1 -1 -10 10 -6 16 -6 18 0 2 6 20 10 39 10 27 0 34 3
30 15 -4 8 -2 17 3 20 6 4 10 -1 10 -9 0 -16 61 -33 79 -21 6 3 14 24 17 45 5
33 11 40 35 45 30 7 40 25 14 25 -8 0 -15 5 -15 10 0 15 32 12 54 -5 31 -23
56 -19 56 9 0 13 5 26 10 28 7 2 6 15 -2 36 -10 26 -10 34 0 41 24 14 62 75
52 81 -6 4 18 5 53 4 55 -3 68 -7 95 -33 18 -16 32 -33 32 -39 0 -5 9 -12 20
-15 11 -3 18 -1 15 4 -3 5 -3 24 1 44 4 25 11 35 25 35 15 0 19 7 19 39 0 22
-5 41 -12 43 -9 3 -9 6 0 12 7 4 12 2 12 -3 0 -6 5 -11 10 -11 6 0 10 12 10
26 0 20 4 24 18 20 14 -5 20 3 32 41 7 26 28 74 47 106 18 32 33 64 34 70 0 7
4 3 8 -8 7 -17 9 -16 15 10 13 52 39 105 53 105 7 0 13 7 13 15 0 8 4 15 9 15
11 0 30 72 41 159 6 53 12 67 36 86 24 19 26 25 16 38 -11 13 -8 17 22 28 33
12 36 17 36 51 0 34 3 38 25 38 18 0 25 5 25 20 0 11 7 23 15 26 8 4 15 17 15
30 0 14 9 37 21 53 11 15 23 47 26 69 4 26 11 42 19 42 8 0 14 4 14 9 0 5 14
14 31 20 24 8 29 15 24 31 -6 20 2 25 35 20 12 -1 13 1 3 11 -7 7 -13 21 -13
31 0 16 3 16 20 6 23 -15 35 -6 25 19 -4 10 -9 44 -10 75 -2 60 -22 146 -36
163 -5 5 -9 33 -9 61 0 29 -4 56 -10 59 -5 3 -10 23 -10 44 0 37 -24 111 -36
111 -3 0 -25 -21 -47 -47 -23 -26 -76 -84 -118 -128 -42 -44 -99 -107 -126
-140 -28 -34 -86 -92 -131 -130 -44 -39 -83 -77 -86 -86 -4 -9 -18 -21 -31
-27 -14 -7 -24 -17 -23 -24 2 -7 -7 -17 -19 -23 -13 -5 -23 -15 -23 -22 0 -7
-7 -10 -15 -7 -8 4 -15 2 -15 -4 0 -6 6 -13 13 -15 6 -3 2 -6 -10 -6 -15 -1
-21 -6 -17 -15 4 -11 0 -13 -15 -9 -16 4 -21 1 -21 -13 -1 -27 -26 -57 -41
-48 -8 5 -10 3 -4 -5 4 -8 -5 -23 -26 -41 -40 -34 -54 -38 -39 -10 9 16 8 18
-5 14 -8 -4 -15 -12 -15 -20 0 -8 -7 -14 -15 -14 -8 0 -15 -7 -15 -15 0 -18
-34 -37 -54 -29 -18 7 -22 24 -6 24 6 0 10 -5 10 -11 0 -5 5 -7 10 -4 6 4 4
12 -5 22 -17 16 -85 11 -85 -7 0 -8 -50 -27 -80 -29 -128 -11 -139 -7 -126 44
4 17 13 25 27 25 18 0 21 5 17 29 -2 17 -1 28 4 25 14 -9 -3 50 -18 62 -18 14
-201 9 -220 -7 -21 -17 -148 -7 -172 14 -18 16 -72 24 -72 11 0 -4 8 -13 18
-20 16 -13 16 -15 0 -28 -10 -7 -18 -18 -18 -25 0 -6 -17 -11 -40 -11 -22 0
-40 5 -40 10 0 6 -17 10 -38 10 -37 0 -82 22 -82 40 0 5 31 6 69 3 63 -5 70
-4 80 16 10 19 9 21 -11 21 -13 0 -29 4 -37 9 -23 15 23 33 64 25 23 -4 35 -2
35 5 0 6 -10 11 -22 11 -12 0 -30 7 -40 17 -12 10 -18 12 -18 4 0 -12 -39 -6
-50 8 -3 4 -20 13 -38 20 -18 8 -37 22 -43 32 -13 25 -29 24 -29 -1 0 -26 -16
-26 -30 0 -9 17 -8 20 10 20 11 0 20 7 20 15 0 8 5 15 10 15 6 0 10 -7 10 -15
0 -10 10 -15 30 -15 17 0 30 -4 30 -10 0 -16 27 -11 34 6 3 8 -1 22 -9 30 -18
19 -19 41 -2 47 6 2 -1 4 -17 4 -15 0 -32 7 -37 14 -7 11 -12 12 -29 1 -28
-17 -36 -15 -64 13 -24 24 -26 25 -46 8 -11 -10 -20 -25 -20 -35 0 -23 -34
-32 -62 -16 -20 10 -21 13 -5 16 23 5 22 33 -3 39 -10 3 -22 14 -25 24 -4 10
-13 19 -21 19 -10 0 -14 12 -14 40 l0 40 40 0 40 0 0 -55 c0 -59 4 -65 30 -38
15 16 14 20 -7 59 -20 36 -30 43 -63 49 -25 4 -40 12 -40 21 0 8 -12 19 -26
24 -19 8 -24 15 -19 28 15 39 17 72 5 72 -8 0 -11 14 -8 45 3 38 0 45 -20 55
-13 5 -38 10 -56 10 -25 0 -35 6 -44 24 -8 19 -8 26 1 29 7 2 -22 14 -64 27
-64 19 -86 31 -134 76 -60 57 -80 67 -70 34 3 -10 1 -28 -5 -40 -9 -16 -8 -20
5 -20 8 0 15 -4 15 -10 0 -13 -23 -13 -37 1 -9 9 -9 16 0 29 14 23 -5 49 -37
51 -17 1 -17 2 -3 6 12 3 17 15 17 45 0 50 -21 47 -34 -5 -11 -41 -40 -51 -49
-17 -3 11 -12 20 -19 20 -19 0 -38 42 -38 80 0 17 -9 39 -20 50 -14 14 -18 28
-14 45 4 15 2 25 -5 25 -6 0 -11 17 -11 40 0 33 -3 40 -20 40 -16 0 -20 -7
-20 -32 0 -18 -3 -44 -6 -58 -4 -19 -3 -22 5 -10 7 11 13 12 21 4 9 -9 9 -14
1 -18 -19 -12 -12 -27 22 -41 l32 -13 -27 -11 c-35 -13 -35 -28 0 -43 l27 -11
-35 -7 c-20 -3 -41 -10 -48 -14 -7 -4 -12 -2 -12 3 0 6 7 11 14 11 11 0 14 11
12 45 -1 25 -5 48 -9 52 -4 3 -7 1 -7 -5 0 -19 -16 -14 -49 17 -26 24 -29 33
-24 64 4 26 2 35 -8 35 -34 -2 -49 3 -49 17 0 9 -9 15 -25 15 -22 0 -25 -4
-25 -40 0 -28 -4 -40 -14 -40 -10 0 -16 22 -21 80 -4 44 -11 80 -16 80 -5 0
-9 -45 -9 -100 0 -99 -8 -121 -30 -80 -6 11 -20 20 -31 20 -27 0 -47 45 -31
70 13 21 -1 30 -44 30 -13 0 -24 5 -24 10 0 6 -7 10 -15 10 -8 0 -15 9 -15 20
0 11 -7 20 -15 20 -8 0 -15 -5 -15 -11 0 -31 -57 -50 -89 -30 -10 6 -1 11 28
16 46 8 56 25 13 25 -33 0 -52 16 -52 45 -1 18 -1 18 -11 3 -5 -10 -16 -18
-23 -18 -18 0 -46 33 -46 56 -1 27 -48 83 -54 64 -24 -76 -24 -77 -26 -50 -2
24 -2 23 -16 -8 -12 -28 -17 -32 -29 -22 -8 7 -15 23 -15 36 0 13 -4 24 -10
24 -5 0 -10 10 -10 23 0 12 -12 33 -25 46 -14 13 -25 27 -25 32 0 5 -9 9 -20
9 -13 0 -20 7 -20 18 0 10 -4 22 -10 28 -5 5 -14 30 -19 54 -5 25 -16 70 -25
100 -9 30 -16 69 -17 85 0 17 -4 39 -9 50 -7 14 -8 8 -4 -20 l6 -40 -16 29
c-19 33 -20 58 -5 73 7 7 8 20 3 34 -8 24 -8 23 -16 -6 -5 -22 -6 -17 -3 18 3
26 -1 64 -8 85 -8 24 -10 68 -6 127 3 50 6 73 7 53 2 -43 11 -70 21 -63 4 2 3
32 -2 67 -17 122 -16 180 4 202 17 18 19 18 19 2 0 -9 4 -14 10 -11 6 4 10 -7
10 -24 0 -21 5 -31 15 -31 9 0 15 -9 15 -24 0 -38 17 -74 54 -113 38 -40 66
-40 66 2 0 14 4 25 8 25 16 0 41 55 32 71 -5 8 -5 31 -1 50 4 19 4 43 0 54
-11 28 -11 47 0 40 5 -3 12 -19 16 -35 11 -52 25 -32 20 29 -4 49 -2 59 11 57
9 -1 20 -9 25 -17 8 -12 10 -12 20 1 8 11 12 12 16 3 11 -27 23 -11 22 30 -1
36 -2 38 -9 17 -7 -22 -8 -23 -9 -4 -1 11 -10 29 -21 39 -13 12 -20 31 -20 56
0 22 -7 45 -17 54 -9 9 -18 39 -21 66 -3 31 -9 49 -17 49 -8 0 -16 18 -20 40
-4 22 -10 40 -14 40 -9 0 -24 104 -24 155 0 17 -3 32 -7 35 -4 3 -10 24 -13
48 -4 33 -2 45 10 49 8 3 13 13 10 23 -3 13 1 16 22 13 l26 -4 -22 17 c-26 19
-30 34 -9 34 7 0 19 7 26 15 10 12 10 15 0 15 -7 0 -1 11 14 25 14 13 26 31
26 40 0 8 4 15 10 15 5 0 13 15 19 34 5 19 18 45 30 57 12 13 21 29 21 36 0 7
4 13 9 13 5 0 24 14 41 32 l33 32 17 -21 17 -22 22 29 c11 16 21 34 21 40 0 5
5 10 10 10 6 0 15 12 20 26 7 19 16 25 29 21 11 -2 24 3 32 14 7 11 21 19 30
19 9 0 19 7 23 15 3 8 12 15 19 15 8 0 20 -7 27 -15 10 -13 9 -15 -11 -15 -32
-1 -7 -15 42 -24 28 -5 42 -2 62 14 30 24 37 25 37 6 0 -15 10 -20 70 -31 19
-4 40 -10 45 -14 6 -3 39 -11 75 -17 39 -7 53 -12 35 -13 -23 -1 -27 -3 -15
-11 28 -18 103 -11 159 15 30 14 61 23 69 20 8 -3 21 0 28 6 9 8 14 8 14 1 0
-14 -71 -72 -87 -72 -7 0 -13 -4 -13 -8 0 -11 -66 -42 -90 -42 -10 0 -22 -5
-26 -12 -9 -14 155 -4 185 11 14 8 32 7 64 -3 43 -13 47 -12 64 7 28 31 104
77 129 77 12 0 27 6 33 13 12 15 59 30 146 46 55 10 61 10 77 -9 21 -25 28
-25 28 1 0 11 5 17 10 14 6 -4 8 -10 5 -15 -9 -14 54 -126 93 -164 24 -24 30
-35 17 -30 -11 4 -23 12 -27 18 -6 8 -11 6 -17 -4 -6 -8 -13 -11 -18 -7 -4 5
-1 12 6 16 8 5 10 14 6 22 -6 9 -10 7 -16 -9 -6 -14 -17 -22 -32 -22 -14 0
-40 -6 -59 -14 -24 -10 -63 -14 -124 -12 l-89 2 60 -18 c136 -41 321 -50 450
-22 134 29 131 29 118 12 -7 -8 -32 -21 -55 -28 -24 -7 -47 -19 -53 -25 -31
-36 -146 -41 -172 -7 -8 9 -13 11 -13 4 0 -25 -104 -15 -329 33 -40 9 -76 14
-78 11 -2 -2 22 -14 54 -25 32 -12 67 -26 78 -33 11 -6 32 -18 48 -26 28 -14
39 -61 15 -63 -7 -1 -30 -3 -50 -4 -22 -1 -48 -12 -67 -28 l-31 -25 33 -7 c17
-4 56 -14 84 -23 45 -13 70 -14 180 -4 71 6 142 16 158 22 45 15 185 37 179
28 -3 -4 -1 -8 5 -8 5 0 12 6 14 13 4 9 8 8 17 -3 8 -11 13 -12 16 -3 4 9 14
7 38 -6 28 -16 36 -17 57 -5 13 7 36 15 51 19 15 3 39 17 52 32 21 22 27 24
40 13 14 -11 20 -9 42 13 36 37 148 96 171 91 28 -6 79 47 149 159 79 127 124
194 145 215 26 26 47 86 42 116 -3 14 0 33 7 41 6 8 9 19 5 25 -4 6 6 13 24
16 17 4 28 10 25 15 -3 5 11 9 30 9 21 0 36 -5 36 -12 0 -9 3 -9 12 0 13 13
80 16 141 5 47 -7 59 -32 46 -92 -5 -23 -6 -47 -3 -53 4 -6 6 -37 5 -67 -1
-36 7 -87 22 -141 14 -47 40 -162 58 -255 18 -94 35 -172 38 -175 3 -3 14 -22
23 -42 10 -21 23 -38 29 -38 20 0 109 -71 124 -99 14 -26 14 -26 21 -3 7 25
19 29 28 7 3 -8 12 -12 21 -9 10 4 15 0 15 -10 0 -9 5 -16 11 -16 5 0 7 5 4
11 -4 5 1 19 10 29 9 10 14 27 12 37 -5 14 10 26 69 56 74 38 76 38 96 20 21
-18 21 -18 15 8 -6 25 -5 26 26 20 46 -10 151 5 188 26 17 10 40 23 51 28 16
8 18 16 12 45 -14 71 1 115 30 91 8 -7 24 -10 35 -6 25 8 61 -10 61 -30 0 -8
6 -15 13 -15 8 0 20 -18 27 -40 7 -22 19 -40 27 -40 7 0 13 -9 13 -19 0 -11 5
-23 10 -26 6 -3 10 -31 10 -61 0 -30 4 -54 9 -54 11 0 21 203 10 214 -5 6 -9
45 -9 88 0 45 -4 78 -10 78 -5 0 -10 23 -10 50 0 28 -4 50 -10 50 -5 0 -10 17
-10 38 0 21 -5 43 -12 50 -7 7 -9 12 -6 12 3 0 0 27 -7 59 l-12 60 30 28 c16
15 49 55 73 87 46 63 69 82 152 122 47 24 92 68 92 91 0 5 41 49 91 99 96 93
139 150 139 183 0 30 108 101 153 101 8 0 25 11 38 25 13 13 29 25 36 25 21 0
127 106 151 150 23 44 30 124 11 135 -6 4 -9 26 -8 49 3 51 -2 60 -50 91 -28
17 -47 22 -74 18 -34 -4 -37 -3 -37 20 0 28 16 37 63 37 31 0 95 -31 108 -53
13 -19 37 2 43 38 10 49 -11 93 -46 101 -17 3 -28 12 -29 22 0 11 -2 12 -6 5
-2 -7 -18 -13 -34 -13 -17 0 -32 -6 -35 -15 -7 -17 -40 -20 -49 -4 -4 6 -13 8
-21 5 -17 -6 -18 6 -3 21 6 6 18 9 25 6 8 -3 14 0 14 5 0 6 9 14 20 17 11 3
20 11 20 17 0 5 -7 8 -15 4 -19 -7 -19 -4 0 41 8 20 13 38 10 41 -3 3 -5 1 -5
-4 0 -11 -44 -64 -53 -64 -4 0 -4 14 0 30 5 29 4 31 -21 26 -14 -3 -26 -1 -26
4 0 4 -17 11 -37 15 -21 4 -49 15 -64 26 -15 10 -32 19 -39 19 -6 0 -21 11
-34 25 -15 16 -30 23 -40 19 -10 -4 -18 0 -22 10 -6 16 -28 17 -51 3 -8 -5
-13 -3 -13 5 0 9 -3 9 -10 -2 -5 -8 -10 -10 -10 -4 0 7 -9 14 -20 17 -11 3
-18 1 -14 -4 8 -13 -20 -11 -34 3 -9 9 -12 8 -12 -6 0 -16 -2 -16 -16 -5 -13
10 -17 10 -25 -2 -5 -8 -9 -9 -9 -2 0 17 -60 74 -71 67 -9 -5 -6 -38 7 -86 3
-10 1 -18 -5 -18 -5 0 -13 15 -16 33 -4 17 -12 35 -17 38 -4 3 -11 29 -15 57
-5 45 -3 53 13 59 22 8 53 43 54 59 0 20 77 66 119 71 31 4 46 1 61 -12 11
-10 26 -15 35 -11 28 10 29 35 1 61 -27 25 -35 42 -15 29 9 -5 10 1 5 20 -5
21 -3 26 13 26 20 0 58 -44 78 -90 70 -162 102 -199 149 -178 27 13 37 80 17
118 -7 14 -13 29 -13 33 0 11 76 -49 112 -88 19 -20 26 -24 22 -11 -4 10 -7
73 -8 139 l-1 121 -43 16 c-23 9 -56 28 -72 42 l-30 26 0 -28 c0 -15 7 -41 15
-56 8 -16 15 -40 15 -54 -1 -25 -1 -25 -18 5 -38 67 -68 105 -79 100 -7 -2
-10 2 -7 10 6 14 -48 75 -67 75 -5 0 -12 -13 -15 -30 -4 -16 -10 -28 -14 -25
-4 2 -5 -7 -2 -20 2 -15 0 -25 -7 -25 -6 0 -11 5 -11 10 0 11 -123 14 -134 3
-4 -4 -35 -13 -68 -20 -49 -10 -65 -10 -77 0 -12 10 -14 9 -9 -4 5 -13 2 -16
-13 -12 -10 3 -26 0 -34 -7 -8 -7 -24 -10 -36 -7 -12 3 -32 -1 -45 -10 -26
-17 -30 -12 -14 17 9 17 6 18 -44 13 l-55 -6 -10 39 c-14 51 0 103 34 128 14
10 25 25 25 32 0 7 10 16 23 19 12 4 43 27 69 52 41 41 45 48 36 69 -6 13 -15
24 -20 24 -5 0 -7 4 -4 9 4 5 -7 21 -24 34 -16 14 -30 31 -30 37 0 7 -7 9 -16
6 -11 -4 -14 -1 -12 13 4 24 -39 71 -58 64 -8 -3 -14 -1 -14 4 0 6 -12 10 -27
10 -33 1 -53 5 -72 17 -11 7 -12 0 -7 -35z m-2524 -304 c0 -8 -4 -15 -10 -15
-5 0 -7 7 -4 15 4 8 8 15 10 15 2 0 4 -7 4 -15z m375 -15 c-3 -5 -10 -10 -16
-10 -5 0 -9 5 -9 10 0 6 7 10 16 10 8 0 12 -4 9 -10z m2166 -37 c29 -17 42
-63 18 -63 -8 0 -8 -4 1 -15 14 -17 5 -36 -14 -29 -8 3 -12 14 -9 25 4 14 0
19 -16 19 -18 0 -21 6 -21 40 0 46 1 46 41 23z m649 -163 c0 -5 -4 -10 -10
-10 -5 0 -10 5 -10 10 0 6 5 10 10 10 6 0 10 -4 10 -10z m7 -42 c-3 -8 -6 -5
-6 6 -1 11 2 17 5 13 3 -3 4 -12 1 -19z m-4067 -27 c0 -6 -4 -13 -10 -16 -5
-3 -10 1 -10 9 0 9 5 16 10 16 6 0 10 -4 10 -9z m265 -131 c3 -5 1 -10 -4 -10
-6 0 -11 5 -11 10 0 6 2 10 4 10 3 0 8 -4 11 -10z m-311 -163 c-4 -12 2 -20
18 -26 13 -6 17 -10 10 -10 -7 -1 -23 7 -36 16 -21 16 -22 21 -13 58 l11 40 8
-30 c4 -17 5 -38 2 -48z m46 59 c0 -3 -4 -8 -10 -11 -5 -3 -10 -1 -10 4 0 6 5
11 10 11 6 0 10 -2 10 -4z m-800 -106 c0 -5 -10 -10 -22 -10 -19 0 -20 2 -8
10 19 13 30 13 30 0z m795 -120 c16 0 17 -2 6 -9 -17 -11 -51 4 -51 21 0 9 3
9 12 0 7 -7 21 -12 33 -12z m-985 -214 c0 -11 -19 -15 -25 -6 -3 5 1 10 9 10
9 0 16 -2 16 -4z m1866 -176 c8 0 24 -6 35 -12 17 -10 23 -10 26 0 6 17 30 15
37 -3 3 -8 15 -15 26 -15 26 0 25 -18 -2 -43 l-23 -19 23 6 c12 4 22 3 22 -2
0 -5 17 -13 38 -17 l37 -8 -27 -10 c-16 -6 -28 -14 -28 -19 0 -4 12 -10 28
-14 15 -3 37 -10 50 -15 13 -5 32 -9 42 -9 11 0 20 -7 20 -16 0 -8 4 -13 9 -9
6 3 14 -3 20 -13 7 -13 18 -18 39 -14 18 2 33 -2 41 -12 9 -11 10 -16 2 -16
-6 0 -11 -7 -11 -16 0 -12 6 -15 21 -11 12 3 22 0 26 -9 3 -8 11 -14 19 -14 8
0 14 -4 14 -8 0 -4 25 -8 55 -9 42 -1 55 2 55 13 0 8 7 14 15 14 8 0 15 -4 15
-10 0 -5 12 -10 26 -10 25 0 26 1 11 24 -15 22 -15 25 -1 37 14 11 18 10 30
-6 13 -18 14 -18 14 5 0 19 3 21 12 12 7 -7 24 -12 39 -12 15 0 29 -5 31 -12
3 -8 15 -9 49 0 24 6 77 11 116 11 40 0 83 3 96 6 15 4 28 1 36 -9 8 -9 20
-16 27 -16 8 0 14 -9 14 -20 0 -11 6 -20 14 -20 9 0 12 7 9 20 -3 11 -1 20 5
20 6 0 16 -34 23 -75 10 -63 14 -73 26 -63 10 8 11 13 2 18 -7 5 -8 10 -1 14
6 3 13 2 17 -4 3 -5 13 -10 21 -10 16 0 20 45 4 55 -5 3 -10 10 -10 16 0 13
18 11 23 -3 2 -7 2 -3 1 9 -2 12 0 25 6 28 6 4 8 -11 5 -41 -3 -28 0 -53 7
-61 6 -7 8 -16 4 -20 -3 -3 -6 -1 -6 5 0 7 -5 12 -11 12 -6 0 -8 -9 -4 -20 9
-27 -36 -50 -60 -30 -13 11 -15 8 -15 -20 0 -28 -2 -31 -16 -19 -13 10 -17 10
-25 -2 -5 -8 -9 -20 -9 -28 0 -7 -6 -11 -15 -7 -8 3 -15 2 -15 -2 0 -9 -49
-32 -67 -32 -7 0 -13 -7 -13 -15 0 -21 -37 -19 -49 4 -16 29 -60 54 -75 42
-12 -10 -21 -7 -87 36 -47 32 -69 30 -39 -2 20 -21 21 -27 10 -38 -10 -10 -11
-9 -5 1 6 11 -3 13 -36 11 -24 -1 -76 8 -115 20 -66 20 -80 21 -164 12 -82 -9
-95 -8 -116 7 -28 20 -30 32 -6 33 30 1 -39 27 -93 34 -36 5 -46 4 -35 -4 8
-6 23 -11 33 -11 9 0 17 -4 17 -9 0 -16 -38 -19 -66 -5 -14 8 -33 14 -40 14
-8 0 -14 5 -14 10 0 6 -7 10 -15 10 -8 0 -15 -3 -15 -8 0 -4 -20 -18 -45 -32
-24 -13 -47 -30 -49 -37 -6 -15 -26 -18 -26 -4 0 17 44 58 58 54 6 -3 12 0 12
6 0 6 7 11 15 11 8 0 15 7 15 15 0 8 -7 15 -15 15 -8 0 -15 -7 -15 -16 0 -11
-6 -13 -19 -9 -11 3 -33 -3 -53 -15 -39 -24 -58 -25 -58 -5 0 13 -3 13 -20 3
-11 -7 -23 -21 -26 -31 -3 -9 -10 -15 -15 -11 -6 3 -16 -1 -22 -9 -14 -16 -78
-34 -153 -41 -28 -3 -75 -16 -105 -30 -49 -24 -89 -33 -89 -21 0 14 53 105 61
105 19 0 52 39 46 54 -5 12 0 16 15 16 20 0 20 1 5 18 -15 17 -12 22 53 90 39
40 70 79 70 87 0 8 5 15 10 15 6 0 10 8 10 18 0 14 2 15 10 2 12 -19 43 -2 48
25 3 14 -1 17 -22 13 -29 -6 -34 3 -11 22 8 7 16 29 16 49 l1 36 8 -30 c7 -28
8 -29 10 -5 1 14 5 34 9 45 7 17 11 13 21 -25 l13 -45 11 33 c6 18 14 30 18
27 3 -3 14 5 24 18 11 13 25 22 32 19 6 -2 13 2 13 10 1 7 3 5 6 -4 2 -10 11
-18 19 -18z m49 10 c3 -5 1 -10 -4 -10 -6 0 -11 5 -11 10 0 6 2 10 4 10 3 0 8
-4 11 -10z m273 -172 c14 -14 16 -28 2 -28 -5 0 -14 9 -20 20 -12 22 -1 27 18
8z m47 2 c3 -5 2 -10 -4 -10 -5 0 -13 5 -16 10 -3 6 -2 10 4 10 5 0 13 -4 16
-10z m3104 -100 c0 -29 -2 -31 -9 -14 -5 12 -11 43 -14 70 l-6 49 14 -35 c8
-19 15 -51 15 -70z m-1029 -20 c0 -7 7 -10 15 -7 8 4 17 2 20 -3 4 -6 18 -10
33 -10 17 0 32 -8 40 -20 7 -12 17 -18 22 -15 6 3 10 -1 10 -10 0 -9 9 -19 20
-22 11 -3 17 -9 14 -14 -3 -5 0 -9 5 -9 6 0 11 -10 10 -22 0 -13 -3 -17 -6
-10 -2 6 -9 9 -14 6 -6 -3 -16 -1 -23 5 -10 9 -15 8 -20 -4 -3 -8 -17 -15 -30
-15 -23 0 -25 -3 -19 -32 5 -26 4 -30 -10 -25 -10 4 -17 2 -17 -3 0 -6 -11
-10 -25 -10 -26 0 -33 -14 -14 -26 21 -12 -20 -26 -77 -25 -33 0 -59 -5 -67
-14 -8 -7 -26 -15 -41 -17 -15 -2 -26 -7 -25 -12 2 -15 -25 -25 -38 -15 -7 6
-17 8 -23 4 -6 -4 -17 -1 -25 5 -11 9 -15 9 -15 1 0 -13 -32 -15 -45 -2 -12
11 -115 31 -160 31 -30 0 -31 2 -33 43 -2 23 -5 51 -7 62 -3 11 -2 14 1 7 4
-9 14 -5 36 13 16 14 38 25 49 25 11 0 22 6 25 14 3 8 13 12 22 9 14 -4 14 -3
3 5 -8 6 -11 17 -7 27 6 17 7 17 25 1 18 -17 19 -17 24 1 3 11 5 7 7 -12 1
-29 2 -29 21 15 15 32 22 41 29 31 6 -11 9 -10 13 5 4 17 6 17 12 -3 4 -13 11
-23 15 -23 13 0 60 27 55 32 -2 2 11 19 31 37 33 32 36 33 53 16 18 -16 20
-15 26 4 3 12 12 21 20 21 7 0 15 7 18 14 5 12 13 9 36 -14 17 -15 31 -33 31
-40z m10 55 c0 -8 -4 -15 -9 -15 -5 0 -11 7 -15 15 -3 9 0 15 9 15 8 0 15 -7
15 -15z m-357 -102 c-5 -12 -8 -13 -11 -4 -4 11 -6 11 -13 0 -4 -7 -11 -10
-16 -6 -8 9 15 27 34 27 8 0 10 -7 6 -17z m-3959 -25 c22 -6 51 -20 62 -30 48
-43 35 -138 -18 -138 -16 0 -28 -4 -28 -9 0 -5 -11 -12 -25 -15 -14 -4 -25
-11 -25 -17 0 -6 -21 -9 -51 -8 -40 2 -53 7 -57 21 -2 10 -8 15 -13 12 -5 -3
-19 4 -31 15 -13 13 -16 21 -9 21 7 0 11 6 8 13 -11 30 72 117 112 117 12 0
21 6 21 15 0 18 2 18 54 3z m130 -38 c9 0 16 -4 16 -10 0 -15 -29 -12 -46 4
-8 8 -14 21 -14 28 1 9 5 7 14 -4 7 -10 21 -18 30 -18z m3217 13 c3 -37 0
-122 -6 -139 -4 -13 -1 -27 9 -37 23 -22 21 -67 -2 -67 -26 0 -33 -10 -22 -31
8 -14 4 -24 -15 -45 -14 -15 -25 -22 -25 -15 0 9 -4 8 -14 -1 -7 -7 -11 -19
-9 -26 7 -17 -16 -42 -38 -42 -11 0 -19 -7 -19 -16 0 -8 -5 -12 -10 -9 -8 5
-8 11 0 19 6 8 7 32 4 59 -5 32 -3 52 7 63 7 9 14 23 15 31 3 18 39 53 55 53
8 0 9 14 4 45 -5 34 -3 45 6 43 9 -2 14 14 15 52 2 30 3 58 3 63 1 4 10 7 21
7 11 0 20 -3 21 -7z m-4285 -43 c39 -25 64 -21 64 10 0 28 13 18 36 -26 11
-20 26 -50 36 -68 20 -39 14 -47 -12 -14 -19 25 -60 44 -60 28 0 -32 -67 -1
-135 63 -16 15 -34 27 -40 27 -5 0 -4 4 4 9 17 11 61 -1 107 -29z m4669 -80
c-4 -11 0 -22 10 -27 12 -7 8 -12 -20 -22 -20 -7 -35 -19 -36 -29 -1 -15 -2
-15 -6 1 -6 24 -31 21 -35 -5 -2 -12 -9 -24 -17 -26 -9 -3 -12 0 -8 10 3 9 0
21 -6 27 -8 8 -7 11 6 11 9 0 17 7 17 15 0 8 4 15 9 15 5 0 22 5 36 10 22 8
25 13 16 24 -10 11 -8 15 6 18 26 6 35 -1 28 -22z m-3615 10 c0 -5 -4 -10 -10
-10 -5 0 -10 5 -10 10 0 6 5 10 10 10 6 0 10 -4 10 -10z m1724 -27 c-14 -55
-63 -83 -143 -83 -32 0 -65 6 -75 13 -16 12 -13 14 30 13 53 0 74 8 144 53 25
16 46 30 48 30 1 1 -1 -11 -4 -26z m618 -11 c7 -7 -14 -10 -66 -9 -42 1 -76 3
-76 5 0 1 10 7 23 12 27 12 105 6 119 -8z m965 -28 c-3 -3 -12 -4 -19 -1 -8 3
-5 6 6 6 11 1 17 -2 13 -5z m303 -11 c0 -5 -5 -15 -10 -23 -8 -12 -10 -11 -10
8 0 12 5 22 10 22 6 0 10 -3 10 -7z m-280 -83 c0 -5 -18 -10 -40 -10 -22 0
-40 5 -40 10 0 6 18 10 40 10 22 0 40 -4 40 -10z m-1777 -27 c55 -13 86 -15
169 -7 80 7 104 6 120 -4 11 -8 28 -12 38 -9 10 3 28 -2 40 -10 12 -8 30 -13
42 -10 17 5 19 2 14 -19 -4 -16 -2 -24 6 -25 8 0 7 -3 -2 -6 -8 -3 -30 -12
-48 -20 -17 -9 -42 -13 -54 -10 -15 4 -30 -1 -46 -16 -19 -17 -38 -22 -99 -25
-55 -3 -78 -1 -84 9 -6 11 -9 10 -15 -4 -3 -9 -17 -17 -30 -17 -13 0 -24 -4
-24 -9 0 -15 -153 33 -177 56 -7 6 -13 19 -13 28 0 9 -6 15 -12 12 -7 -2 -12
-12 -12 -21 2 -23 -13 -20 -19 5 -3 12 -10 18 -15 15 -5 -3 -17 0 -26 7 -13
10 -16 20 -10 41 7 27 8 28 20 11 13 -18 14 -18 14 3 0 14 6 22 18 22 9 0 26
8 37 16 22 17 52 15 168 -13z m1694 -35 c-3 -7 -5 -2 -5 12 0 14 2 19 5 13 2
-7 2 -19 0 -25z m73 -12 c0 -3 -4 -8 -10 -11 -5 -3 -10 -1 -10 4 0 6 5 11 10
11 6 0 10 -2 10 -4z m-1725 -396 c-3 -5 -14 -10 -23 -10 -15 0 -15 2 -2 10 20
13 33 13 25 0z m-55 -20 c-8 -5 -19 -10 -25 -10 -5 0 -3 5 5 10 8 5 20 10 25
10 6 0 3 -5 -5 -10z m375 -112 c2 -7 6 -31 9 -53 4 -29 3 -34 -3 -19 -5 12
-14 25 -20 29 -14 8 -14 55 -1 55 6 0 12 -6 15 -12z m-3490 -78 c8 -13 -15
-13 -35 0 -12 8 -11 10 7 10 12 0 25 -4 28 -10z m5765 -152 c0 -26 -17 -38
-65 -47 -53 -10 -75 -6 -75 14 0 11 23 17 102 29 10 1 21 5 24 9 10 10 14 9
14 -5z m17 -155 c-3 -10 -5 -4 -5 12 0 17 2 24 5 18 2 -7 2 -21 0 -30z m-4000
-335 c-3 -8 -6 -5 -6 6 -1 11 2 17 5 13 3 -3 4 -12 1 -19z m-97 -58 c0 -5 -5
-10 -11 -10 -5 0 -7 5 -4 10 3 6 8 10 11 10 2 0 4 -4 4 -10z m7 -52 c-3 -8 -6
-5 -6 6 -1 11 2 17 5 13 3 -3 4 -12 1 -19z m61 -38 c30 -53 18 -71 -19 -30
-29 31 -35 50 -22 63 12 12 18 7 41 -33z m-994 -13 c3 4 6 -1 6 -10 0 -9 5
-17 10 -17 6 0 10 -5 10 -11 0 -6 6 -17 13 -24 28 -32 37 -45 32 -45 -3 0 4
-9 15 -20 11 -11 27 -20 35 -20 20 0 99 -32 106 -43 4 -5 11 -7 17 -3 14 9 27
-13 15 -25 -17 -17 -76 -19 -106 -4 -17 8 -38 15 -49 15 -10 0 -18 5 -18 10 0
6 -7 10 -16 8 -10 -2 -19 3 -22 11 -3 8 0 11 7 7 6 -4 11 -5 11 -2 0 2 3 12 7
22 4 12 3 15 -5 10 -7 -4 -12 -1 -12 10 0 24 -31 45 -47 32 -10 -8 -13 -4 -13
14 0 13 -9 34 -20 46 -11 12 -20 34 -20 49 l1 28 18 -22 c10 -12 21 -19 25
-16z m932 -81 c8 -8 14 -23 14 -32 0 -13 3 -15 11 -7 16 16 58 -7 66 -37 3
-14 10 -27 14 -30 17 -11 20 -55 5 -75 -15 -19 -17 -19 -60 26 -32 33 -48 43
-55 36 -14 -14 -14 -27 0 -27 13 0 40 -26 38 -37 -1 -4 3 -21 9 -36 10 -23 9
-32 -4 -52 -16 -24 -39 -25 -31 -2 2 7 -2 17 -8 24 -7 6 -15 30 -19 53 -5 30
-12 43 -26 47 -24 6 -26 19 -5 27 12 4 14 10 5 25 -7 14 -7 22 1 27 7 4 9 20
6 39 -8 46 10 60 39 31z m-46 -30 c0 -3 -4 -8 -10 -11 -5 -3 -10 -1 -10 4 0 6
5 11 10 11 6 0 10 -2 10 -4z m227 -104 c-3 -12 -5 -9 -7 8 l-2 25 -8 -25 c-6
-21 -8 -22 -14 -8 -5 10 -2 23 6 31 11 13 14 13 21 1 5 -8 6 -22 4 -32z m43
13 c0 -8 -4 -15 -10 -15 -5 0 -10 7 -10 15 0 8 5 15 10 15 6 0 10 -7 10 -15z
m-800 -81 c0 -22 -23 -28 -36 -9 -10 13 -10 23 -2 38 10 20 11 20 24 2 8 -10
14 -24 14 -31z m40 7 c0 -6 -4 -13 -10 -16 -5 -3 -10 1 -10 9 0 9 5 16 10 16
6 0 10 -4 10 -9z m17 -63 c-3 -8 -6 -5 -6 6 -1 11 2 17 5 13 3 -3 4 -12 1 -19z
m-492 -598 c3 -5 1 -10 -4 -10 -6 0 -11 5 -11 10 0 6 2 10 4 10 3 0 8 -4 11
-10z m-22 -39 c3 -14 1 -18 -9 -14 -8 3 -14 11 -14 19 0 21 17 17 23 -5z
m1077 -535 c0 -2 -7 -9 -15 -16 -12 -10 -15 -10 -15 4 0 9 7 16 15 16 8 0 15
-2 15 -4z m420 -21 c0 -8 -4 -15 -10 -15 -5 0 -10 7 -10 15 0 8 5 15 10 15 6
0 10 -7 10 -15z m-623 -52 c-3 -10 -5 -4 -5 12 0 17 2 24 5 18 2 -7 2 -21 0
-30z m18 -40 c-9 -76 -17 -61 -8 18 3 35 8 58 11 51 2 -7 1 -38 -3 -69z m675
46 c0 -10 -4 -19 -10 -19 -5 0 -10 12 -10 26 0 14 4 23 10 19 6 -3 10 -15 10
-26z m280 -146 c-1 -24 -2 -26 -11 -10 -5 9 -7 22 -4 27 10 17 15 11 15 -17z
m270 -182 c0 -10 -7 -21 -15 -25 -11 -4 -15 1 -15 19 0 16 6 25 15 25 8 0 15
-9 15 -19z m-1354 -25 c16 -13 17 -18 6 -33 -12 -18 -15 -24 -29 -60 -6 -17
-6 -17 -10 0 -3 9 -14 17 -26 17 -31 1 -57 23 -57 49 0 17 6 21 30 21 17 0 30
5 30 10 0 15 33 12 56 -4z m1525 -66 c5 0 9 -7 9 -15 0 -8 7 -15 15 -15 11 0
15 -11 15 -40 0 -44 -16 -54 -26 -15 -4 18 -13 25 -30 25 -15 0 -24 6 -24 15
0 8 -5 15 -10 15 -6 0 -5 8 2 20 7 11 19 18 26 15 8 -3 18 -5 23 -5z m-723
-25 c-3 -3 -9 2 -12 12 -6 14 -5 15 5 6 7 -7 10 -15 7 -18z m42 -11 c0 -8 -5
-12 -10 -9 -6 4 -8 11 -5 16 9 14 15 11 15 -7z m130 -15 c0 -24 -23 -21 -28 4
-2 10 3 17 12 17 10 0 16 -9 16 -21z m50 -49 c0 -5 -9 -10 -21 -10 -11 0 -17
5 -14 10 3 6 13 10 21 10 8 0 14 -4 14 -10z m10 -35 c10 -13 9 -15 -9 -15 -12
0 -21 6 -21 15 0 8 4 15 9 15 5 0 14 -7 21 -15z m384 -58 c6 -5 0 -5 -14 -1
-33 9 -37 13 -20 24 10 6 16 5 19 -3 2 -7 9 -16 15 -20z m226 -27 c0 -11 5
-20 10 -20 6 0 22 -12 34 -27 13 -15 32 -28 42 -29 11 0 31 -1 47 -2 15 -1 27
-8 27 -15 0 -7 14 -18 31 -24 31 -12 31 -14 27 -63 -6 -57 -5 -55 -35 -64 -17
-6 -23 -3 -23 8 0 9 -7 16 -15 16 -9 0 -21 11 -27 25 -6 14 -17 25 -25 25 -7
0 -13 9 -13 20 0 25 34 27 57 5 18 -19 28 -13 19 10 -4 12 -16 16 -44 14 -33
-3 -45 3 -75 33 -21 19 -37 40 -37 47 0 6 -7 11 -15 11 -9 0 -15 9 -15 25 0
16 6 25 15 25 8 0 15 -9 15 -20z m-110 -10 c0 -5 -4 -10 -10 -10 -5 0 -10 5
-10 10 0 6 5 10 10 10 6 0 10 -4 10 -10z m-72 -6 c36 -10 25 -24 -18 -24 -29
0 -40 4 -40 15 0 16 20 19 58 9z m-35 -52 c-3 -13 4 -22 22 -30 14 -7 23 -17
20 -22 -9 -15 -65 21 -65 41 0 10 -8 20 -17 22 -10 3 -4 5 14 6 25 1 30 -2 26
-17z m62 8 c-3 -5 -12 -7 -20 -3 -21 7 -19 13 6 13 11 0 18 -4 14 -10z m75
-50 c0 -11 6 -20 14 -20 7 0 16 -9 19 -20 7 -27 33 -16 41 16 4 14 11 22 15
19 5 -3 7 -14 4 -25 -4 -14 2 -22 21 -30 14 -5 26 -16 26 -24 0 -9 14 -19 33
-24 37 -10 39 -26 3 -30 -13 -2 -30 -10 -37 -19 -11 -12 -10 -17 4 -24 10 -6
17 -22 17 -41 l0 -32 -35 34 c-21 20 -35 44 -35 58 0 13 -4 20 -10 17 -6 -3
-14 5 -20 19 -5 14 -16 26 -25 26 -8 0 -15 7 -15 16 0 17 -14 32 -45 50 -26
15 -31 41 -8 47 31 8 33 7 33 -13z m240 -173 c0 -17 11 -29 43 -44 l42 -22
-42 0 c-24 -1 -43 -6 -46 -13 -2 -7 -7 6 -11 30 -10 53 -26 55 -26 2 0 -29 -4
-40 -15 -40 -13 0 -15 7 -9 36 5 26 3 39 -7 45 -10 6 -6 9 13 9 15 0 30 5 33
10 11 18 25 11 25 -13z m80 -7 c0 -5 -8 -10 -17 -10 -15 0 -16 2 -3 10 19 12
20 12 20 0z m27 -86 c-3 -3 -12 -4 -19 -1 -8 3 -5 6 6 6 11 1 17 -2 13 -5z
m306 -81 c-18 -7 -16 -24 3 -38 16 -11 16 -12 0 -18 -10 -4 -16 -1 -16 8 0 8
-4 15 -10 15 -5 0 -14 9 -20 20 -10 18 -8 20 22 19 18 0 27 -3 21 -6z m-123
-97 c0 -2 -11 -6 -25 -8 -14 -3 -25 -1 -25 3 0 5 11 9 25 9 14 0 25 -2 25 -4z
m350 -46 c0 -5 -5 -10 -11 -10 -5 0 -7 5 -4 10 3 6 8 10 11 10 2 0 4 -4 4 -10z
m270 -734 c0 -2 -7 -9 -15 -16 -12 -10 -15 -10 -15 4 0 9 7 16 15 16 8 0 15
-2 15 -4z m-142 -199 c3 -12 -4 -17 -22 -17 -27 0 -37 24 -13 33 19 8 32 2 35
-16z m199 -299 c-3 -8 -6 -5 -6 6 -1 11 2 17 5 13 3 -3 4 -12 1 -19z m-327
-24 c0 -8 -5 -12 -10 -9 -6 4 -8 11 -5 16 9 14 15 11 15 -7z m-3 -30 c-3 -3
-12 -4 -19 -1 -8 3 -5 6 6 6 11 1 17 -2 13 -5z m380 0 c-3 -3 -12 -4 -19 -1
-8 3 -5 6 6 6 11 1 17 -2 13 -5z m76 -24 c-4 -14 0 -20 11 -20 9 0 16 -7 16
-15 0 -21 -22 -19 -43 5 -18 21 -13 50 8 50 8 0 11 -8 8 -20z"/>
<path d="M6458 8323 c18 -8 36 -13 39 -9 11 10 -18 26 -47 26 -23 0 -23 -1 8
-17z"/>
<path d="M7735 8332 c-8 -9 -6 -42 3 -42 5 0 14 11 19 23 9 19 8 24 -3 24 -8
0 -16 -3 -19 -5z"/>
<path d="M7615 8250 c-4 -6 -9 -8 -13 -6 -4 2 -8 -19 -9 -47 -1 -28 -7 -54
-15 -58 -8 -5 -5 -8 10 -6 18 1 22 7 22 37 0 20 7 45 15 57 9 13 11 24 6 28
-5 3 -12 1 -16 -5z"/>
<path d="M5361 4144 c0 -11 3 -14 6 -6 3 7 2 16 -1 19 -3 4 -6 -2 -5 -13z"/>
<path d="M5240 10145 c0 -19 27 -55 41 -55 29 0 30 15 4 38 -23 20 -45 29 -45
17z"/>
<path d="M5176 10073 c11 -44 37 -53 58 -21 13 22 -9 48 -40 48 -22 0 -24 -3
-18 -27z"/>
<path d="M8082 10028 c-17 -17 -16 -131 1 -125 8 2 11 19 9 46 -2 24 2 48 9
57 16 19 -1 40 -19 22z"/>
<path d="M8399 10012 c5 -9 12 -25 15 -34 3 -10 10 -18 15 -18 15 0 -7 57 -25
64 -10 4 -11 1 -5 -12z"/>
<path d="M5125 10010 c3 -5 10 -10 16 -10 5 0 9 5 9 10 0 6 -7 10 -16 10 -8 0
-12 -4 -9 -10z"/>
<path d="M3250 9949 c0 -5 5 -7 10 -4 6 3 10 8 10 11 0 2 -4 4 -10 4 -5 0 -10
-5 -10 -11z"/>
<path d="M8122 9951 c-11 -7 -11 -9 2 -14 10 -4 16 -1 16 8 0 17 -1 17 -18 6z"/>
<path d="M3183 9927 c-10 -16 -4 -60 10 -73 9 -8 22 0 49 28 35 37 36 38 12
38 -13 0 -24 -4 -24 -10 0 -5 -5 -10 -11 -10 -6 0 -9 6 -6 14 7 18 -20 29 -30
13z"/>
<path d="M3295 9930 c-3 -5 -2 -10 4 -10 5 0 13 5 16 10 3 6 2 10 -4 10 -5 0
-13 -4 -16 -10z"/>
<path d="M3600 9905 c-7 -8 -19 -15 -26 -15 -8 0 -14 -5 -14 -11 0 -6 -7 -8
-16 -5 -11 4 -15 2 -11 -8 3 -8 -1 -17 -9 -20 -8 -3 -19 -17 -24 -31 -6 -15
-15 -23 -24 -19 -8 3 -17 0 -21 -6 -4 -7 2 -14 14 -17 25 -6 18 -23 -11 -23
-15 0 -19 -5 -15 -20 3 -10 2 -19 -2 -18 -7 1 -39 -10 -63 -23 -10 -5 -29 -9
-43 -9 -14 0 -25 -6 -25 -13 0 -7 -9 -20 -19 -29 -17 -15 -20 -15 -35 0 -21
21 -31 10 -16 -18 8 -15 18 -20 31 -17 10 3 17 1 14 -4 -3 -5 11 -8 32 -7 21
1 57 -3 81 -9 l44 -11 35 76 c19 43 39 87 44 98 4 12 28 52 53 89 41 59 54 85
42 85 -2 0 -9 -7 -16 -15z"/>
<path d="M5660 9912 c0 -11 51 -34 58 -27 4 3 -4 8 -16 12 -12 3 -22 9 -22 14
0 5 -4 9 -10 9 -5 0 -10 -4 -10 -8z"/>
<path d="M3170 9820 c0 -20 27 -29 64 -20 41 9 58 19 35 21 -66 6 -99 6 -99
-1z"/>
<path d="M5422 9822 c-10 -3 -9 -8 4 -23 18 -20 44 -26 44 -9 0 6 -6 10 -14
10 -8 0 -16 6 -18 13 -2 8 -9 12 -16 9z"/>
<path d="M4695 9790 c10 -11 20 -18 23 -15 7 6 -18 35 -31 35 -5 0 -2 -9 8
-20z"/>
<path d="M5171 9801 c-13 -8 -13 -12 -1 -26 8 -10 19 -26 25 -38 13 -26 31
-32 38 -12 7 16 -22 76 -38 82 -6 1 -16 -1 -24 -6z"/>
<path d="M4730 9761 c0 -5 5 -13 10 -16 6 -3 10 -2 10 4 0 5 -4 13 -10 16 -5
3 -10 2 -10 -4z"/>
<path d="M5380 9760 c-8 -5 -23 -11 -33 -14 -17 -5 -17 -7 -1 -31 11 -17 20
-22 24 -15 5 8 9 7 13 -4 3 -8 1 -17 -6 -19 -9 -3 -9 -7 0 -17 16 -17 44 -5
50 21 4 16 8 17 14 7 5 -8 8 -2 6 18 -1 22 -6 30 -18 27 -8 -3 -20 4 -25 15
-6 14 -14 17 -24 12z"/>
<path d="M5470 9760 c0 -5 4 -10 9 -10 6 0 13 5 16 10 3 6 -1 10 -9 10 -9 0
-16 -4 -16 -10z"/>
<path d="M8660 9760 c0 -5 5 -10 10 -10 6 0 10 5 10 10 0 6 -4 10 -10 10 -5 0
-10 -4 -10 -10z"/>
<path d="M8905 9750 c3 -5 10 -10 16 -10 5 0 9 5 9 10 0 6 -7 10 -16 10 -8 0
-12 -4 -9 -10z"/>
<path d="M5476 9733 c5 -5 12 -12 16 -18 4 -6 8 -2 8 8 0 9 -7 17 -17 17 -9 0
-12 -3 -7 -7z"/>
<path d="M8976 9725 c25 -19 34 -19 34 0 0 10 -10 15 -27 15 -26 0 -26 -1 -7
-15z"/>
<path d="M8785 9720 c-3 -5 -1 -10 4 -10 6 0 11 5 11 10 0 6 -2 10 -4 10 -3 0
-8 -4 -11 -10z"/>
<path d="M5225 9670 c3 -5 8 -10 11 -10 2 0 4 5 4 10 0 6 -5 10 -11 10 -5 0
-7 -4 -4 -10z"/>
<path d="M3040 9649 c0 -5 7 -9 15 -9 54 0 139 -108 128 -162 -6 -30 13 -40
20 -10 3 12 5 11 6 -6 2 -36 20 -62 42 -62 11 0 33 -7 48 -15 16 -8 32 -11 36
-7 3 4 6 3 5 -3 -5 -21 0 -27 13 -16 10 8 19 7 33 -4 14 -12 15 -15 4 -14 -29
3 -41 -1 -35 -11 9 -15 42 -12 49 5 3 8 8 46 12 83 4 37 10 77 15 89 7 20 4
22 -44 28 -62 8 -130 38 -154 69 -12 14 -38 27 -73 34 -81 18 -120 21 -120 11z"/>
<path d="M5410 9621 c0 -22 26 -36 33 -17 3 7 -4 18 -14 24 -16 10 -19 9 -19
-7z"/>
<path d="M3940 9485 c0 -6 4 -16 9 -24 8 -12 12 -12 25 -2 9 8 16 18 16 23 0
7 -5 6 -13 -1 -10 -8 -17 -7 -25 1 -7 7 -12 8 -12 3z"/>
<path d="M4096 9415 c-4 -13 -2 -14 14 -5 23 13 26 20 6 20 -8 0 -16 -7 -20
-15z"/>
<path d="M4060 9381 c0 -11 31 -24 39 -16 3 3 -1 10 -9 15 -19 12 -30 12 -30
1z"/>
<path d="M3860 9370 c0 -5 5 -10 10 -10 6 0 10 5 10 10 0 6 -4 10 -10 10 -5 0
-10 -4 -10 -10z"/>
<path d="M3835 9290 c3 -5 8 -10 11 -10 2 0 4 5 4 10 0 6 -5 10 -11 10 -5 0
-7 -4 -4 -10z"/>
<path d="M4065 9270 c-3 -5 -1 -10 4 -10 6 0 11 5 11 10 0 6 -2 10 -4 10 -3 0
-8 -4 -11 -10z"/>
<path d="M8496 9265 c-3 -9 0 -15 9 -15 9 0 12 6 9 15 -4 8 -7 15 -9 15 -2 0
-5 -7 -9 -15z"/>
<path d="M8880 9194 c1 -18 56 -72 80 -79 24 -7 24 -6 -5 22 -55 51 -75 66
-75 57z"/>
<path d="M2900 8489 c0 -5 5 -7 10 -4 6 3 10 8 10 11 0 2 -4 4 -10 4 -5 0 -10
-5 -10 -11z"/>
<path d="M3035 8460 c-3 -5 -2 -10 4 -10 5 0 18 -3 28 -7 17 -6 17 -6 1 10
-19 20 -24 21 -33 7z"/>
<path d="M2194 8290 c4 -19 11 -37 17 -39 6 -2 15 -15 21 -30 7 -19 12 -22 16
-11 3 8 18 32 35 53 16 21 27 41 23 44 -4 4 -13 -3 -22 -15 -9 -13 -20 -19
-31 -15 -13 5 -15 2 -10 -11 5 -12 3 -16 -5 -13 -7 2 -13 11 -13 20 0 9 -9 24
-19 34 -18 17 -18 17 -12 -17z"/>
<path d="M2436 8175 c4 -8 10 -12 15 -9 11 6 2 24 -11 24 -5 0 -7 -7 -4 -15z"/>
<path d="M5710 7400 c0 -5 5 -10 10 -10 6 0 10 5 10 10 0 6 -4 10 -10 10 -5 0
-10 -4 -10 -10z"/>
<path d="M4880 7390 c0 -5 5 -10 10 -10 6 0 10 5 10 10 0 6 -4 10 -10 10 -5 0
-10 -4 -10 -10z"/>
<path d="M5946 7174 c-9 -24 -7 -27 9 -10 17 17 19 26 6 26 -5 0 -12 -7 -15
-16z"/>
<path d="M8346 6704 c-4 -36 -4 -80 0 -98 3 -20 -1 -52 -10 -80 -18 -53 -21
-86 -6 -86 5 0 7 7 4 15 -3 8 1 28 10 45 11 23 15 62 14 151 0 65 -2 119 -3
119 -1 0 -5 -30 -9 -66z"/>
<path d="M7400 6522 c0 -14 29 -82 35 -82 3 0 5 14 5 31 0 17 -4 28 -10 24 -5
-3 -10 1 -10 9 0 8 -4 18 -10 21 -5 3 -10 2 -10 -3z"/>
<path d="M6660 6510 c0 -5 5 -10 10 -10 6 0 10 5 10 10 0 6 -4 10 -10 10 -5 0
-10 -4 -10 -10z"/>
<path d="M6670 6481 c0 -6 5 -13 10 -16 6 -3 10 1 10 9 0 9 -4 16 -10 16 -5 0
-10 -4 -10 -9z"/>
<path d="M6470 6461 c-8 -6 -18 -7 -22 -5 -4 3 -8 -4 -8 -15 0 -11 -12 -32
-27 -48 -32 -32 -73 -114 -73 -143 0 -11 2 -20 3 -20 10 0 67 32 72 40 3 5 18
7 34 4 24 -5 30 -2 41 25 15 38 35 60 80 91 19 14 43 34 52 45 16 19 15 20
-20 26 -20 4 -38 3 -40 -2 -5 -12 -39 -11 -47 1 -8 12 -25 13 -45 1z"/>
<path d="M4225 6451 c-3 -5 -1 -12 5 -16 5 -3 10 1 10 9 0 18 -6 21 -15 7z"/>
<path d="M8226 6378 c-3 -13 -1 -27 4 -32 7 -7 10 1 10 22 0 37 -5 41 -14 10z"/>
<path d="M8280 6341 c0 -16 -2 -41 -4 -57 -2 -16 -1 -21 1 -11 2 9 8 17 13 17
4 0 10 18 12 40 2 28 0 40 -9 40 -8 0 -13 -12 -13 -29z"/>
<path d="M7498 6270 c2 -16 9 -30 14 -30 5 0 6 10 3 23 -11 35 -22 40 -17 7z"/>
<path d="M8233 6225 c0 -22 2 -30 4 -17 2 12 2 30 0 40 -3 9 -5 -1 -4 -23z"/>
<path d="M7520 6215 c0 -10 29 -24 34 -17 3 6 -3 12 -14 15 -11 3 -20 4 -20 2z"/>
<path d="M5000 6195 c0 -8 5 -15 10 -15 6 0 10 7 10 15 0 8 -4 15 -10 15 -5 0
-10 -7 -10 -15z"/>
<path d="M4135 6160 c-3 -5 -1 -10 4 -10 6 0 11 5 11 10 0 6 -2 10 -4 10 -3 0
-8 -4 -11 -10z"/>
<path d="M8196 6151 c-4 -7 -5 -15 -2 -18 9 -9 19 4 14 18 -4 11 -6 11 -12 0z"/>
<path d="M8240 6147 c0 -9 -4 -17 -10 -17 -5 0 -10 -20 -10 -45 0 -25 4 -45 9
-45 9 0 23 111 16 119 -3 2 -5 -3 -5 -12z"/>
<path d="M7406 6095 c-13 -14 -33 -25 -44 -25 -12 0 -37 -8 -56 -17 -38 -18
-75 -14 -196 22 -64 18 -160 21 -190 5 -11 -6 -28 -9 -38 -6 -9 3 -60 7 -112
9 -52 2 -85 2 -72 0 24 -5 31 -23 8 -23 -7 0 -29 -2 -47 -5 -32 -5 -33 -5 -9
6 35 16 8 23 -34 9 -37 -12 -99 -60 -78 -60 7 0 22 9 34 20 12 11 28 20 36 20
9 0 2 -9 -14 -22 -16 -12 -36 -30 -45 -40 -21 -23 -29 -23 -29 3 0 11 -4 18
-9 15 -25 -16 28 -184 57 -178 7 1 16 -8 21 -21 12 -30 82 -87 107 -87 20 0
149 -61 174 -82 31 -27 60 -77 49 -84 -7 -4 1 -12 20 -20 38 -16 40 -41 4 -55
l-28 -11 23 -12 23 -12 -23 -12 c-20 -11 -21 -12 -2 -9 15 3 25 -6 41 -34 24
-43 21 -51 -6 -18 -14 18 -21 20 -39 10 -11 -6 -30 -11 -42 -11 -12 0 -50 -10
-86 -22 -54 -19 -67 -21 -84 -10 -12 7 -25 10 -30 7 -4 -3 -10 1 -13 7 -3 10
-11 11 -38 1 -19 -6 -55 -15 -80 -18 -39 -6 -49 -4 -57 11 -9 15 -13 16 -41 4
-17 -7 -35 -19 -40 -28 -4 -8 -24 -20 -42 -27 -19 -7 -41 -15 -49 -19 -11 -4
-21 5 -35 31 -26 51 -64 82 -99 83 -35 0 -116 -39 -116 -56 0 -8 -6 -11 -14
-8 -11 4 -16 -6 -21 -40 -8 -48 -34 -66 -36 -23 -1 42 -18 -13 -17 -58 0 -22
2 -32 5 -22 6 21 19 22 31 1 8 -14 12 -14 30 -3 17 11 25 11 45 0 14 -7 30
-10 36 -7 6 4 19 2 30 -4 25 -13 150 3 245 32 62 18 83 20 225 14 157 -7 238
-23 261 -52 7 -7 23 -14 36 -14 14 0 24 -6 24 -14 0 -8 6 -17 13 -20 10 -5 10
-7 0 -12 -23 -10 -14 -21 30 -34 l42 -13 -30 -9 c-94 -28 -341 -15 -475 26
-85 26 -98 29 -116 22 -13 -5 -11 -12 15 -41 17 -20 31 -43 31 -53 0 -9 7 -29
14 -44 8 -16 11 -28 5 -28 -5 0 -9 -18 -9 -40 0 -23 5 -40 11 -40 6 0 9 -7 6
-14 -8 -21 85 -54 170 -62 98 -8 132 -13 188 -24 27 -6 82 -8 121 -6 59 4 78
1 110 -16 21 -11 42 -25 45 -31 4 -5 15 -7 24 -3 9 3 25 1 36 -5 12 -6 37 -8
60 -4 30 5 43 14 54 35 25 48 20 76 -17 91 -18 7 -40 13 -48 13 -8 1 -20 4
-27 9 -6 4 -14 1 -16 -5 -4 -10 -6 -10 -6 0 -1 19 -21 36 -66 58 -35 16 -115
86 -115 99 0 3 7 5 15 5 18 0 20 16 3 23 -7 3 14 6 47 6 33 1 90 4 128 8 64 6
68 8 83 39 9 18 14 41 12 52 -6 37 49 71 67 42 3 -5 17 -10 31 -10 20 0 24 -5
24 -30 l0 -30 50 51 c28 29 54 49 57 45 4 -3 15 2 26 11 18 17 19 17 33 -2 14
-19 14 -19 14 1 0 10 -7 28 -16 39 -13 17 -16 18 -25 5 -8 -13 -12 -12 -28 8
-23 26 -34 27 -66 6 -14 -9 -25 -13 -25 -9 0 4 -7 2 -16 -6 -13 -10 -17 -10
-24 1 -4 7 -17 11 -29 7 -11 -3 -25 1 -32 9 -6 8 -22 14 -35 14 -13 0 -24 5
-24 10 0 6 -8 10 -19 10 -10 0 -24 7 -31 15 -17 20 -24 19 -70 -10 -22 -14
-50 -25 -62 -25 -19 0 -20 2 -8 10 12 8 10 10 -11 10 -14 0 -30 -5 -36 -11
-12 -12 -37 -3 -28 11 3 4 23 11 45 15 27 5 41 13 45 27 4 11 9 17 11 15 3 -3
26 2 51 9 25 8 73 14 106 14 50 0 60 -3 64 -20 7 -25 11 -25 48 0 17 11 38 20
48 20 10 0 17 8 17 20 0 11 -4 20 -9 20 -14 0 -56 73 -53 89 2 8 10 20 18 28
27 27 15 369 -14 380 -8 3 -17 2 -21 -3 -29 -42 -148 -85 -135 -49 4 10 0 15
-10 15 -9 0 -19 -7 -22 -15 -4 -8 -14 -15 -23 -15 -13 1 -13 3 4 16 16 12 17
17 7 23 -11 7 -10 10 3 15 9 3 21 4 25 1 13 -8 60 17 60 32 0 10 6 12 19 8 11
-3 35 3 55 14 21 12 38 16 41 11 4 -6 22 6 41 26 23 25 34 32 34 20 0 -8 -9
-21 -20 -28 -28 -18 -25 -29 6 -18 32 13 84 69 84 93 0 9 -7 20 -15 23 -8 4
-15 15 -15 26 0 17 -3 18 -15 8 -10 -9 -15 -9 -15 -1 0 21 -51 11 -74 -14z
m-606 -41 c0 -2 -9 -4 -21 -4 -11 0 -18 4 -14 10 5 8 35 3 35 -6z m109 -10
c17 -4 28 -10 26 -15 -3 -4 7 -15 22 -23 19 -10 22 -15 11 -16 -9 0 -19 4 -22
9 -3 4 -26 14 -51 21 -24 7 -42 16 -39 21 6 11 12 11 53 3z m588 -16 c-3 -8
-6 -5 -6 6 -1 11 2 17 5 13 3 -3 4 -12 1 -19z m-471 -65 c-6 -6 -36 9 -36 18
0 5 9 4 20 -3 10 -7 18 -14 16 -15z m274 3 c0 -3 -4 -8 -10 -11 -5 -3 -10 -1
-10 4 0 6 5 11 10 11 6 0 10 -2 10 -4z m-180 -106 c0 -5 -5 -10 -11 -10 -5 0
-7 5 -4 10 3 6 8 10 11 10 2 0 4 -4 4 -10z m-33 -536 c-3 -3 -12 -4 -19 -1 -8
3 -5 6 6 6 11 1 17 -2 13 -5z m-420 -300 c-3 -3 -12 -4 -19 -1 -8 3 -5 6 6 6
11 1 17 -2 13 -5z m156 -11 c-7 -2 -21 -2 -30 0 -10 3 -4 5 12 5 17 0 24 -2
18 -5z m137 -3 c0 -5 -19 -10 -42 -9 -37 1 -39 2 -18 9 36 12 60 12 60 0z"/>
<path d="M4527 6096 c-6 -15 1 -26 15 -26 4 0 8 9 8 20 0 23 -15 27 -23 6z"/>
<path d="M8155 5969 c-4 -33 -2 -72 5 -98 6 -23 8 -52 5 -64 -5 -17 -4 -19 4
-7 6 8 11 29 11 47 0 18 9 48 20 68 33 60 20 80 -14 22 -15 -25 -20 -28 -23
-15 -3 10 3 25 11 34 20 19 20 25 2 49 -13 18 -15 15 -21 -36z"/>
<path d="M7280 5890 c0 -5 10 -10 23 -10 18 0 19 2 7 10 -19 13 -30 13 -30 0z"/>
<path d="M4973 5874 c-3 -8 -1 -20 6 -27 8 -8 11 -4 11 16 0 30 -7 35 -17 11z"/>
<path d="M8107 5790 c3 -11 9 -20 13 -20 4 0 10 9 13 20 4 15 0 20 -13 20 -13
0 -17 -5 -13 -20z"/>
<path d="M4786 5749 c-8 -12 -12 -29 -8 -38 9 -23 32 -45 40 -37 3 4 0 11 -7
15 -9 6 -12 21 -9 45 5 42 4 43 -16 15z"/>
<path d="M8113 5690 c0 -25 2 -35 4 -22 2 12 2 32 0 45 -2 12 -4 2 -4 -23z"/>
<path d="M4640 5699 c0 -11 4 -18 10 -14 5 3 7 12 3 20 -7 21 -13 19 -13 -6z"/>
<path d="M4860 5705 c0 -3 7 -14 16 -23 15 -14 16 -14 13 3 -4 17 -29 35 -29
20z"/>
<path d="M5080 5680 c0 -5 5 -10 11 -10 5 0 7 5 4 10 -3 6 -8 10 -11 10 -2 0
-4 -4 -4 -10z"/>
<path d="M8000 5639 c0 -12 5 -19 12 -17 18 6 20 25 3 31 -10 5 -15 0 -15 -14z"/>
<path d="M4972 5619 c2 -6 8 -10 13 -10 5 0 11 4 13 10 2 6 -4 11 -13 11 -9 0
-15 -5 -13 -11z"/>
<path d="M4832 5608 c5 -15 28 -18 29 -3 0 6 -7 12 -17 13 -10 3 -15 -1 -12
-10z"/>
<path d="M4356 5593 c-11 -11 -6 -23 9 -23 8 0 15 4 15 9 0 13 -16 22 -24 14z"/>
<path d="M8020 5558 c0 -7 4 -19 9 -26 6 -10 10 -7 13 12 4 18 1 26 -8 26 -8
0 -14 -6 -14 -12z"/>
<path d="M4800 5530 c0 -19 3 -21 12 -12 9 9 9 15 0 24 -9 9 -12 7 -12 -12z"/>
<path d="M6841 5486 c2 -2 18 -6 34 -10 22 -5 26 -4 15 4 -14 9 -59 15 -49 6z"/>
<path d="M4880 5460 c0 -5 5 -10 10 -10 6 0 10 5 10 10 0 6 -4 10 -10 10 -5 0
-10 -4 -10 -10z"/>
<path d="M5040 5450 c0 -19 3 -21 12 -12 9 9 9 15 0 24 -9 9 -12 7 -12 -12z"/>
<path d="M4692 5430 c0 -14 2 -19 5 -12 2 6 2 18 0 25 -3 6 -5 1 -5 -13z"/>
<path d="M4930 5440 c0 -5 7 -10 15 -10 8 0 15 5 15 10 0 6 -7 10 -15 10 -8 0
-15 -4 -15 -10z"/>
<path d="M4722 5364 c4 -21 22 -23 26 -1 2 10 -3 17 -13 17 -10 0 -15 -6 -13
-16z"/>
<path d="M7946 5358 c-10 -32 -15 -108 -7 -108 5 0 12 17 16 37 4 21 12 41 17
44 13 8 3 39 -12 39 -6 0 -12 -6 -14 -12z"/>
<path d="M4551 5344 c0 -11 3 -14 6 -6 3 7 2 16 -1 19 -3 4 -6 -2 -5 -13z"/>
<path d="M7997 5296 c-4 -10 -7 -25 -6 -34 0 -11 4 -9 10 7 5 13 8 29 6 35 -2
5 -6 2 -10 -8z"/>
<path d="M5191 5264 c0 -11 3 -14 6 -6 3 7 2 16 -1 19 -3 4 -6 -2 -5 -13z"/>
<path d="M8010 5262 c0 -5 7 -15 15 -22 8 -7 15 -9 15 -6 0 4 -7 14 -15 22 -8
9 -15 11 -15 6z"/>
<path d="M4792 5230 c0 -14 2 -19 5 -12 2 6 2 18 0 25 -3 6 -5 1 -5 -13z"/>
<path d="M5018 5244 c6 -3 12 -15 12 -25 0 -11 5 -17 10 -14 6 3 10 -3 10 -15
0 -27 24 -21 28 7 3 23 -12 38 -48 47 -14 3 -19 3 -12 0z"/>
<path d="M5934 5234 c3 -9 6 -18 6 -20 0 -2 5 -4 10 -4 6 0 10 9 10 20 0 12
-7 20 -16 20 -11 0 -14 -5 -10 -16z"/>
<path d="M4240 5210 c0 -5 18 -10 40 -10 22 0 40 5 40 10 0 6 -18 10 -40 10
-22 0 -40 -4 -40 -10z"/>
<path d="M7871 5202 c-17 -31 -13 -40 5 -14 9 13 14 26 11 29 -3 2 -10 -4 -16
-15z"/>
<path d="M4740 5180 c0 -5 7 -10 16 -10 8 0 12 5 9 10 -3 6 -10 10 -16 10 -5
0 -9 -4 -9 -10z"/>
<path d="M4943 5149 c-30 -35 -29 -39 7 -39 36 0 48 21 28 48 -12 18 -14 18
-35 -9z"/>
<path d="M5166 5113 c-11 -11 -6 -23 9 -23 8 0 15 4 15 9 0 13 -16 22 -24 14z"/>
<path d="M7906 5112 c-4 -7 0 -19 8 -28 17 -17 19 -11 7 20 -5 14 -10 16 -15
8z"/>
<path d="M4820 5070 c0 -11 4 -20 9 -20 5 0 12 -15 15 -33 3 -19 13 -42 22
-53 14 -18 15 -16 10 26 -2 24 -12 49 -20 56 -9 6 -16 19 -16 28 0 9 -4 16
-10 16 -5 0 -10 -9 -10 -20z"/>
<path d="M7862 4990 c0 -14 2 -19 5 -12 2 6 2 18 0 25 -3 6 -5 1 -5 -13z"/>
<path d="M5280 4955 c0 -17 2 -18 24 -9 18 7 12 24 -10 24 -8 0 -14 -7 -14
-15z"/>
<path d="M5200 4936 c0 -30 28 -42 49 -21 14 13 14 15 -1 15 -9 0 -18 7 -22
15 -9 23 -26 18 -26 -9z"/>
<path d="M5785 4940 c-3 -5 1 -10 9 -10 9 0 16 5 16 10 0 6 -4 10 -9 10 -6 0
-13 -4 -16 -10z"/>
<path d="M7891 4934 c0 -11 3 -14 6 -6 3 7 2 16 -1 19 -3 4 -6 -2 -5 -13z"/>
<path d="M3872 4670 c-1 -52 14 -115 18 -80 2 8 1 20 -1 25 -1 6 -5 33 -9 60
l-7 50 -1 -55z"/>
<path d="M3891 4674 c0 -11 3 -14 6 -6 3 7 2 16 -1 19 -3 4 -6 -2 -5 -13z"/>
<path d="M5360 4600 c0 -5 4 -10 9 -10 6 0 13 5 16 10 3 6 -1 10 -9 10 -9 0
-16 -4 -16 -10z"/>
<path d="M3895 4520 c3 -5 8 -10 11 -10 2 0 4 5 4 10 0 6 -5 10 -11 10 -5 0
-7 -4 -4 -10z"/>
<path d="M5687 4419 c-11 -41 -8 -81 6 -77 15 6 21 62 9 84 -8 14 -10 13 -15
-7z"/>
<path d="M5759 4315 c-2 -24 -4 -29 -13 -44 -10 -15 9 -31 37 -31 9 0 17 -7
17 -15 0 -8 9 -15 20 -15 11 0 20 -7 20 -15 0 -19 11 -19 36 0 17 13 17 14 2
15 -10 0 -23 9 -30 20 -7 11 -18 20 -25 20 -7 0 -13 8 -13 18 0 21 -27 62 -41
62 -5 0 -10 -7 -10 -15z"/>
<path d="M5840 4309 c0 -8 12 -26 26 -40 15 -13 39 -41 55 -62 26 -36 28 -37
38 -18 10 19 12 18 42 -10 25 -23 40 -29 75 -29 48 0 114 -23 114 -39 0 -6 10
-13 23 -16 12 -3 28 -19 36 -36 12 -27 51 -42 51 -19 0 6 -4 10 -10 10 -15 0
-12 29 5 46 8 9 15 20 15 25 0 5 -7 9 -15 9 -8 0 -15 -7 -15 -15 0 -8 -4 -15
-10 -15 -5 0 -10 13 -10 29 0 32 -14 41 -66 41 -28 0 -34 4 -34 21 0 19 -4 20
-50 14 -49 -7 -50 -6 -50 19 0 18 -8 30 -30 41 -29 15 -30 15 -30 -8 0 -13 5
-28 12 -35 9 -9 9 -12 -4 -12 -10 0 -19 15 -25 43 l-10 42 -8 -42 c-4 -24 -11
-43 -15 -43 -10 0 -20 26 -20 51 0 12 -5 16 -15 13 -8 -4 -15 -1 -15 5 0 6 -7
11 -16 11 -9 0 -23 8 -30 18 -11 15 -13 15 -14 1z"/>
<path d="M5658 4283 c7 -3 16 -2 19 1 4 3 -2 6 -13 5 -11 0 -14 -3 -6 -6z"/>
<path d="M6824 4234 c3 -9 6 -18 6 -20 0 -2 5 -4 11 -4 7 0 17 -7 23 -15 9
-12 14 -12 29 -1 15 12 15 15 2 26 -10 9 -15 9 -15 1 0 -6 -4 -11 -10 -11 -5
0 -10 6 -10 14 0 8 -7 17 -16 20 -24 9 -27 8 -20 -10z"/>
<path d="M6080 4220 c0 -5 7 -10 15 -10 8 0 15 5 15 10 0 6 -7 10 -15 10 -8 0
-15 -4 -15 -10z"/>
<path d="M6293 4184 c-19 -8 -16 -32 5 -38 9 -3 25 -26 35 -51 19 -45 40 -58
50 -31 5 12 13 13 39 5 57 -16 123 -11 151 12 22 16 30 18 48 9 30 -17 40 -1
26 42 -9 29 -16 37 -29 32 -10 -3 -28 2 -40 10 -30 21 -45 20 -51 -4 -4 -17
-14 -20 -60 -20 -29 0 -67 6 -83 14 -36 18 -75 26 -91 20z"/>
<path d="M6945 4170 c-9 -15 -1 -23 21 -18 15 3 16 4 1 16 -11 9 -17 10 -22 2z"/>
<path d="M5936 4145 c-3 -9 0 -15 9 -15 16 0 20 16 6 24 -5 3 -11 -1 -15 -9z"/>
<path d="M5991 4144 c0 -11 3 -14 6 -6 3 7 2 16 -1 19 -3 4 -6 -2 -5 -13z"/>
<path d="M5878 4123 c7 -3 16 -2 19 1 4 3 -2 6 -13 5 -11 0 -14 -3 -6 -6z"/>
<path d="M6120 4090 c0 -29 4 -40 15 -40 12 0 13 4 6 18 -7 14 -6 25 5 40 14
20 14 22 -5 22 -18 0 -21 -6 -21 -40z"/>
<path d="M6053 4109 c-14 -14 -6 -39 13 -39 8 0 14 -6 14 -12 0 -7 5 -5 11 5
21 36 -10 74 -38 46z"/>
<path d="M6720 4085 c0 -8 7 -15 15 -15 8 0 15 7 15 15 0 8 -7 15 -15 15 -8 0
-15 -7 -15 -15z"/>
<path d="M6895 4080 c-9 -15 22 -31 44 -22 20 7 20 8 -9 19 -16 6 -32 8 -35 3z"/>
<path d="M3961 4034 c0 -11 3 -14 6 -6 3 7 2 16 -1 19 -3 4 -6 -2 -5 -13z"/>
<path d="M6481 4034 c0 -11 3 -14 6 -6 3 7 2 16 -1 19 -3 4 -6 -2 -5 -13z"/>
<path d="M5960 4011 c0 -12 6 -21 16 -21 9 0 14 7 12 17 -5 25 -28 28 -28 4z"/>
<path d="M3980 3901 c0 -6 4 -13 10 -16 6 -3 7 1 4 9 -7 18 -14 21 -14 7z"/>
<path d="M6640 3690 c0 -5 7 -10 15 -10 8 0 15 5 15 10 0 6 -7 10 -15 10 -8 0
-15 -4 -15 -10z"/>
<path d="M5295 3550 c-3 -11 -3 -25 0 -30 10 -16 35 8 35 31 0 25 -27 24 -35
-1z"/>
<path d="M5352 3520 c0 -14 2 -19 5 -12 2 6 2 18 0 25 -3 6 -5 1 -5 -13z"/>
<path d="M6040 2966 c0 -9 7 -16 16 -16 17 0 14 22 -4 28 -7 2 -12 -3 -12 -12z"/>
<path d="M5630 2890 c0 -5 5 -10 10 -10 6 0 10 5 10 10 0 6 -4 10 -10 10 -5 0
-10 -4 -10 -10z"/>
<path d="M6015 2746 c22 -33 48 -35 43 -3 -2 16 -11 23 -31 25 -28 3 -28 3
-12 -22z"/>
<path d="M5600 2720 c0 -13 5 -18 15 -14 12 5 13 10 4 20 -15 19 -19 18 -19
-6z"/>
<path d="M6060 2700 c0 -5 5 -10 10 -10 6 0 10 5 10 10 0 6 -4 10 -10 10 -5 0
-10 -4 -10 -10z"/>
<path d="M6110 2600 c0 -13 11 -13 30 0 12 8 11 10 -7 10 -13 0 -23 -4 -23
-10z"/>
<path d="M5922 2510 c0 -14 2 -19 5 -12 2 6 2 18 0 25 -3 6 -5 1 -5 -13z"/>
<path d="M6040 2520 c0 -5 5 -10 10 -10 6 0 10 5 10 10 0 6 -4 10 -10 10 -5 0
-10 -4 -10 -10z"/>
<path d="M7804 2495 c11 -8 24 -15 30 -15 5 0 1 7 -10 15 -10 8 -23 14 -29 14
-5 0 -1 -6 9 -14z"/>
<path d="M7870 2445 c14 -15 34 -31 45 -36 11 -5 30 -16 42 -24 14 -11 23 -13
28 -6 3 6 -5 16 -19 23 -14 6 -26 15 -26 20 0 4 -7 8 -15 8 -8 0 -15 4 -15 9
0 5 -8 11 -17 15 -10 3 -25 9 -33 12 -8 4 -4 -6 10 -21z"/>
<path d="M5950 2429 c9 -16 19 -19 47 -17 20 2 39 9 41 17 3 10 -2 12 -21 7
-14 -3 -29 -2 -32 4 -3 5 -15 10 -26 10 -17 0 -18 -3 -9 -21z"/>
<path d="M6716 2435 c4 -8 8 -15 10 -15 2 0 4 7 4 15 0 8 -4 15 -10 15 -5 0
-7 -7 -4 -15z"/>
<path d="M8010 2351 c6 -12 15 -21 20 -21 18 0 11 19 -11 30 -19 11 -20 10 -9
-9z"/>
<path d="M6640 2342 c0 -10 -5 -23 -12 -30 -6 -6 -8 -15 -4 -19 4 -4 10 -3 14
3 4 6 15 13 25 17 21 8 22 33 1 41 -23 9 -24 8 -24 -12z"/>
<path d="M6720 2178 c1 -15 24 -48 34 -48 4 0 6 12 4 27 -3 28 -38 47 -38 21z"/>
<path d="M6960 2132 c0 -22 26 -37 36 -21 3 6 4 11 3 12 -2 2 -12 9 -21 16
-16 12 -18 11 -18 -7z"/>
<path d="M7900 2057 c0 -18 17 -57 29 -67 3 -3 18 -23 32 -45 37 -56 167 -193
275 -290 104 -93 184 -138 334 -189 294 -100 320 -114 453 -244 51 -49 78 -90
100 -154 3 -10 25 -31 49 -47 24 -17 67 -47 97 -68 30 -21 72 -57 94 -80 22
-24 47 -43 55 -43 20 0 131 63 163 92 14 13 41 32 61 42 29 15 39 29 47 60 12
49 13 241 1 211 -5 -11 -9 -32 -9 -48 -1 -15 -10 -44 -21 -64 -11 -21 -20 -43
-20 -51 0 -7 -11 -30 -25 -52 -14 -22 -25 -49 -25 -59 0 -14 -5 -19 -15 -15
-9 4 -15 0 -15 -10 0 -9 -6 -16 -12 -16 -7 0 -26 -7 -41 -15 -23 -12 -33 -12
-50 -3 -12 6 -24 10 -27 8 -3 -2 -16 19 -30 46 -14 27 -33 55 -42 62 -10 7
-18 19 -18 26 0 8 -13 24 -30 37 -37 29 -38 49 -4 49 21 0 25 4 22 23 -2 14
-11 23 -25 25 -13 2 -23 7 -23 12 0 5 -10 10 -22 12 -14 2 -29 16 -40 38 -9
19 -17 29 -18 23 0 -7 -7 -13 -16 -13 -11 0 -14 8 -12 28 3 25 6 27 41 24 28
-3 37 0 37 11 0 9 5 17 12 19 14 5 48 -22 48 -37 0 -6 20 -21 45 -33 50 -24
59 -26 50 -13 -3 5 -1 12 4 15 5 4 12 2 16 -4 9 -14 58 -13 73 2 9 9 15 9 24
0 36 -36 58 0 58 97 0 65 -11 79 -44 58 -27 -18 -62 -22 -70 -9 -3 5 -6 30 -7
56 -2 26 -6 49 -11 52 -4 3 -8 14 -8 25 0 26 -22 24 -52 -4 -26 -25 -26 -47 0
-47 15 0 15 -2 2 -10 -21 -13 -70 -13 -70 1 0 6 -9 9 -20 6 -20 -5 -29 8 -9
15 5 2 -17 26 -50 53 -34 28 -61 56 -61 63 0 6 -5 12 -11 12 -6 0 -24 14 -40
31 -26 28 -32 30 -74 24 -38 -6 -45 -5 -45 9 0 18 -25 22 -35 6 -4 -7 -13 -6
-27 1 l-20 11 21 19 c12 11 21 25 21 32 0 8 -3 9 -8 1 -11 -17 -60 -26 -68
-13 -4 7 -9 7 -13 1 -3 -5 -16 -12 -28 -16 -17 -6 -23 -3 -23 8 0 9 -6 17 -12
18 -56 6 -78 6 -112 -4 -33 -10 -40 -10 -51 5 -17 23 -24 21 -18 -4 6 -20 4
-20 -92 -13 -73 5 -96 4 -91 -5 5 -7 -3 -11 -23 -11 -29 0 -30 -1 -19 -30 13
-39 25 -46 46 -27 15 13 20 14 36 1 17 -12 18 -14 3 -14 -20 0 -23 -36 -4 -43
9 -4 9 -6 -1 -6 -8 -1 -16 8 -19 19 -3 11 -10 20 -15 20 -5 0 -6 -4 -3 -10 10
-17 -20 -11 -41 8 -10 9 -31 23 -46 31 -22 11 -25 17 -17 28 6 7 17 13 25 13
7 0 18 9 24 20 9 17 8 20 -13 20 -13 0 -34 9 -47 20 -13 11 -26 20 -30 20 -4
0 -17 9 -30 20 -26 22 -36 25 -45 10 -9 -15 -25 -2 -25 21 0 11 -4 17 -10 14
-17 -11 -11 -43 12 -59 12 -9 37 -16 55 -16 45 0 50 -17 7 -22 -48 -6 -86 24
-316 250 -41 40 -58 51 -58 39z m402 -307 c40 -11 64 -32 26 -22 -21 5 -22 4
-8 -13 14 -17 14 -17 -7 -4 -16 10 -19 16 -10 22 8 6 4 7 -10 4 -12 -3 -27 1
-34 9 -14 17 -6 17 43 4z m255 -26 c-3 -3 -12 -4 -19 -1 -8 3 -5 6 6 6 11 1
17 -2 13 -5z m3 -134 c0 -5 -7 -7 -15 -4 -8 4 -15 8 -15 10 0 2 7 4 15 4 8 0
15 -4 15 -10z m215 -30 c28 -7 28 -8 -12 -9 -23 0 -45 4 -48 9 -7 11 16 11 60
0z m665 -96 c0 -27 -15 -32 -24 -8 -11 28 -7 44 9 38 8 -4 15 -17 15 -30z
m114 -69 c-4 -8 -10 -12 -15 -9 -14 8 -10 24 6 24 9 0 12 -6 9 -15z"/>
<path d="M6000 1969 c0 -6 -7 -17 -17 -24 -15 -11 -15 -14 0 -36 10 -13 17
-31 17 -41 0 -10 7 -18 15 -18 11 0 15 12 17 45 1 25 2 53 2 62 1 10 -7 19
-16 21 -10 2 -18 -2 -18 -9z"/>
<path d="M6980 1970 c0 -36 119 -227 196 -316 11 -12 37 -43 59 -70 22 -27 66
-77 98 -111 31 -34 57 -68 56 -75 -1 -18 -27 -85 -28 -73 -1 14 -31 -44 -31
-61 0 -8 6 -11 16 -7 14 5 15 3 4 -17 -11 -20 -10 -22 4 -17 11 5 16 1 16 -13
0 -10 5 -22 10 -25 6 -3 10 -17 10 -31 0 -13 5 -24 10 -24 6 0 15 -10 20 -22
7 -18 9 -19 9 -5 1 15 3 16 15 5 10 -9 11 -15 2 -20 -6 -5 0 -8 15 -8 36 0 45
-34 18 -71 -10 -15 -19 -30 -19 -33 0 -8 81 -1 103 9 10 4 17 3 17 -4 0 -19
69 -80 114 -100 37 -18 43 -18 59 -4 9 9 17 22 17 29 0 22 -31 108 -45 124 -7
8 -18 37 -26 63 -8 27 -21 56 -30 65 -8 10 -14 23 -12 29 2 6 -5 17 -16 22
-11 7 -23 26 -27 46 -3 19 -10 33 -14 30 -4 -2 -19 1 -33 8 -18 8 -27 22 -31
50 -4 21 -10 36 -15 33 -4 -3 -17 1 -27 9 -10 8 -28 15 -39 15 -14 0 -16 3 -7
9 10 6 10 10 -2 21 -13 10 -17 9 -22 -4 -9 -24 -27 -19 -21 6 8 31 -10 61 -34
55 -10 -3 -17 -1 -13 4 3 5 2 9 -3 9 -11 0 -43 57 -43 76 0 8 -7 17 -15 20 -8
4 -15 10 -15 14 0 4 -20 29 -44 54 -32 35 -48 45 -62 40 -16 -6 -17 -5 -6 7
16 17 16 49 -1 49 -7 0 -23 11 -35 25 -12 14 -20 25 -17 25 3 0 -8 12 -23 28
-34 32 -92 116 -92 131 0 6 -4 11 -10 11 -5 0 -10 -4 -10 -10z m610 -710 c0
-5 -4 -10 -10 -10 -5 0 -10 5 -10 10 0 6 5 10 10 10 6 0 10 -4 10 -10z"/>
<path d="M5920 1936 c0 -9 5 -16 10 -16 6 0 10 4 10 9 0 6 -4 13 -10 16 -5 3
-10 -1 -10 -9z"/>
<path d="M8119 1892 c5 -9 19 -26 30 -36 21 -19 21 -19 21 2 0 16 -6 22 -21
22 -15 0 -19 5 -15 15 3 9 0 15 -10 15 -11 0 -12 -4 -5 -18z"/>
<path d="M5600 1880 c0 -5 6 -10 14 -10 8 0 18 5 21 10 3 6 -3 10 -14 10 -12
0 -21 -4 -21 -10z"/>
<path d="M5574 1834 c-4 -14 -2 -37 5 -50 10 -22 8 -26 -16 -35 -16 -6 -23
-13 -17 -17 6 -4 13 -15 17 -24 3 -10 13 -18 21 -18 7 0 16 -9 19 -20 3 -13 0
-20 -10 -20 -11 0 -13 -10 -11 -42 3 -39 5 -43 28 -39 24 3 24 2 8 -16 -25
-27 -22 -50 9 -92 51 -70 83 -87 83 -45 0 8 5 14 10 14 6 0 10 -4 10 -10 0 -5
7 -10 15 -10 8 0 15 -4 15 -10 0 -26 41 -5 76 40 21 27 44 49 50 50 12 0 34
43 34 66 0 9 12 28 28 44 34 35 48 52 54 70 4 10 9 6 17 -15 18 -45 31 -14 31
78 0 62 -3 77 -15 77 -11 0 -15 -11 -15 -40 0 -52 -24 -54 -45 -4 -8 19 -14
38 -14 42 5 34 -28 45 -51 17 -7 -9 -29 -15 -51 -15 -28 0 -39 -4 -39 -15 0
-9 -11 -20 -25 -25 -14 -5 -25 -16 -25 -25 0 -24 -28 -17 -32 8 -2 14 -11 23
-25 25 -13 2 -23 10 -23 18 0 10 -89 64 -107 64 -1 0 -6 -12 -9 -26z m112 -58
c7 -41 0 -58 -22 -49 -14 5 -14 7 0 21 13 13 13 17 -1 38 -14 22 -14 24 0 24
10 0 18 -13 23 -34z m234 -1 c0 -8 -8 -15 -18 -15 -10 0 -28 -7 -40 -16 -21
-14 -22 -14 -22 10 0 20 6 25 33 29 17 2 35 5 40 5 4 1 7 -5 7 -13z m-290 -41
c0 -2 -7 -4 -15 -4 -8 0 -15 4 -15 10 0 5 7 7 15 4 8 -4 15 -8 15 -10z m232
-29 c0 -5 -5 -11 -11 -13 -6 -2 -11 4 -11 13 0 9 5 15 11 13 6 -2 11 -8 11
-13z m-84 -11 c12 -8 22 -21 22 -28 0 -14 -67 -32 -78 -22 -3 3 1 6 8 6 9 0 7
6 -6 21 -16 17 -16 22 -4 29 21 13 32 12 58 -6z m-98 -84 c0 -22 -3 -23 -49
-14 -46 10 -40 34 9 34 33 0 40 -3 40 -20z m160 -20 c0 -11 -6 -20 -14 -20 -8
0 -16 -6 -19 -12 -2 -7 -8 -9 -13 -5 -5 4 -4 11 2 15 6 4 13 15 17 25 9 23 27
22 27 -3z"/>
<path d="M5522 1810 c0 -14 2 -19 5 -12 2 6 2 18 0 25 -3 6 -5 1 -5 -13z"/>
<path d="M9931 1804 c0 -11 3 -14 6 -6 3 7 2 16 -1 19 -3 4 -6 -2 -5 -13z"/>
<path d="M5761 1794 c0 -11 3 -14 6 -6 3 7 2 16 -1 19 -3 4 -6 -2 -5 -13z"/>
<path d="M8848 1773 c7 -3 16 -2 19 1 4 3 -2 6 -13 5 -11 0 -14 -3 -6 -6z"/>
<path d="M5432 1508 c2 -12 9 -23 16 -24 7 -1 8 0 2 3 -5 2 -10 9 -10 14 0 6
7 6 19 0 14 -8 22 -7 30 3 14 17 4 26 -31 26 -24 0 -29 -4 -26 -22z"/>
<path d="M9591 1483 c-1 -7 -8 -13 -16 -13 -16 0 -20 -16 -6 -24 12 -8 34 21
28 36 -4 10 -6 10 -6 1z"/>
<path d="M5440 1420 c0 -5 4 -10 9 -10 5 0 23 -13 40 -29 31 -29 40 -51 21
-51 -5 0 -10 -18 -10 -40 0 -22 5 -40 10 -40 6 0 10 7 10 15 0 11 11 15 40 15
29 0 40 -4 40 -15 0 -26 18 -16 29 16 15 44 14 49 -9 49 -11 0 -20 4 -20 10 0
5 -18 15 -40 21 -31 9 -40 17 -40 34 0 17 -8 24 -31 29 -42 8 -49 8 -49 -4z"/>
<path d="M9692 1390 c0 -14 2 -19 5 -12 2 6 2 18 0 25 -3 6 -5 1 -5 -13z"/>
<path d="M5422 1378 c-17 -17 -15 -48 3 -48 10 0 15 10 15 30 0 34 -1 35 -18
18z"/>
<path d="M9718 1384 c-5 -4 -8 -16 -8 -28 0 -14 3 -17 11 -9 6 6 9 19 7 28 -1
9 -6 13 -10 9z"/>
<path d="M9600 1360 c0 -5 5 -10 11 -10 5 0 7 5 4 10 -3 6 -8 10 -11 10 -2 0
-4 -4 -4 -10z"/>
<path d="M9665 1340 c-3 -5 -1 -10 4 -10 6 0 11 5 11 10 0 6 -2 10 -4 10 -3 0
-8 -4 -11 -10z"/>
<path d="M9600 1305 c0 -14 5 -25 10 -25 6 0 10 11 10 25 0 14 -4 25 -10 25
-5 0 -10 -11 -10 -25z"/>
<path d="M9711 1314 c0 -11 3 -14 6 -6 3 7 2 16 -1 19 -3 4 -6 -2 -5 -13z"/>
<path d="M9440 1215 c0 -9 6 -12 15 -9 8 4 15 10 15 15 0 5 -7 9 -15 9 -8 0
-15 -7 -15 -15z"/>
<path d="M7348 353 c-23 -6 -23 -40 -1 -95 17 -42 80 -140 95 -146 5 -2 8 -28
8 -58 l0 -54 90 0 c74 0 90 3 90 15 0 23 -78 125 -95 125 -8 0 -15 9 -15 19 0
10 -7 22 -16 25 -9 3 -14 12 -11 19 4 11 -21 48 -58 88 -8 9 -15 21 -15 27 0
11 -39 43 -50 41 -3 -1 -13 -3 -22 -6z"/>
</g>
</svg>
